<svg fill="#000000" xmlns="http://www.w3.org/2000/svg"  viewBox="0 0 80 80" width="50px" height="50px"><path d="M 40 7 C 21.8 7 7 21.8 7 40 C 7 58.2 21.8 73 40 73 C 51.57 73 61.770156 67.020469 67.660156 57.980469 C 68.100156 57.300469 68.519922 56.600625 68.919922 55.890625 C 68.139922 55.960625 67.339062 56 66.539062 56 L 66.5 56 C 63.7 56 60.939062 55.600781 58.289062 54.800781 C 58.256262 54.790879 58.224334 54.797448 58.191406 54.791016 L 58 54.757812 L 57.976562 54.769531 C 57.674426 54.777113 57.39459 54.914084 57.210938 55.152344 L 57.199219 55.158203 L 57.195312 55.181641 C 57.132294 55.269195 57.071974 55.361684 57.039062 55.470703 C 56.983449 55.654921 57.000998 55.836775 57.046875 56.009766 L 57.041016 56.041016 L 57.064453 56.066406 C 57.153457 56.335801 57.348143 56.55634 57.625 56.666016 L 57.652344 56.695312 L 57.695312 56.703125 C 57.701092 56.704875 57.705102 56.709286 57.710938 56.710938 C 60.150937 57.450938 62.680234 57.870703 65.240234 57.970703 C 59.620234 65.850703 50.4 71 40 71 C 22.91 71 9 57.09 9 40 C 9 22.91 22.91 9 40 9 C 40.73 9 41.459688 9.0300781 42.179688 9.0800781 C 41.009687 10.620078 39.979609 12.290078 39.099609 14.080078 C 38.859609 14.580078 39.060547 15.179922 39.560547 15.419922 C 40.060547 15.669922 40.650391 15.460938 40.900391 14.960938 C 41.910391 12.920937 43.129297 11.030078 44.529297 9.3300781 C 45.029297 8.7200781 45.549609 8.1303125 46.099609 7.5703125 C 45.309609 7.4203125 44.509219 7.3009375 43.699219 7.2109375 C 42.489219 7.0709375 41.25 7 40 7 z M 68.431641 9.3828125 L 67.015625 13.025391 L 63.373047 14.441406 L 67.015625 15.859375 L 68.431641 19.501953 L 69.849609 15.859375 L 73.490234 14.441406 L 69.849609 13.025391 L 68.431641 9.3828125 z M 38.771484 16.419922 L 37.96875 16.822266 L 37.8125 17.705078 L 38.423828 18.359375 L 38.771484 18.419922 L 39.572266 18.019531 L 39.730469 17.136719 L 39.117188 16.482422 L 38.771484 16.419922 z M 37.671875 20.263672 L 36.871094 20.664062 L 36.712891 21.546875 L 37.324219 22.201172 L 37.671875 22.263672 L 38.472656 21.861328 L 38.630859 20.980469 L 38.017578 20.324219 L 37.671875 20.263672 z M 51.869141 21.71875 L 50.837891 24.300781 L 48.255859 25.332031 L 50.837891 26.365234 L 51.869141 28.945312 L 52.902344 26.365234 L 55.482422 25.332031 L 52.902344 24.300781 L 51.869141 21.71875 z M 37.097656 24.21875 L 36.296875 24.619141 L 36.138672 25.501953 L 36.75 26.15625 L 37.097656 26.21875 L 37.898438 25.816406 L 38.056641 24.933594 L 37.445312 24.279297 L 37.097656 24.21875 z M 37.054688 28.212891 L 36.253906 28.615234 L 36.095703 29.498047 L 36.708984 30.152344 L 37.054688 30.212891 L 37.855469 29.8125 L 38.013672 28.929688 L 37.402344 28.275391 L 37.054688 28.212891 z M 37.568359 32.175781 L 36.767578 32.578125 L 36.609375 33.458984 L 37.220703 34.113281 L 37.568359 34.175781 L 38.369141 33.775391 L 38.527344 32.892578 L 37.914062 32.238281 L 37.568359 32.175781 z M 38.578125 36.042969 L 37.777344 36.445312 L 37.619141 37.326172 L 38.230469 37.980469 L 38.578125 38.042969 L 39.378906 37.640625 L 39.537109 36.759766 L 38.925781 36.105469 L 38.578125 36.042969 z M 63.869141 36.71875 L 62.837891 39.300781 L 60.255859 40.332031 L 62.837891 41.365234 L 63.869141 43.945312 L 64.902344 41.365234 L 67.482422 40.332031 L 64.902344 39.300781 L 63.869141 36.71875 z M 40.142578 39.720703 L 39.341797 40.123047 L 39.183594 41.003906 L 39.796875 41.658203 L 40.142578 41.720703 L 40.943359 41.320312 L 41.101562 40.4375 L 40.490234 39.783203 L 40.142578 39.720703 z M 42.177734 43.158203 L 41.376953 43.560547 L 41.21875 44.441406 L 41.830078 45.097656 L 42.177734 45.158203 L 42.978516 44.757812 L 43.136719 43.875 L 42.525391 43.220703 L 42.177734 43.158203 z M 44.646484 46.300781 L 43.845703 46.701172 L 43.6875 47.583984 L 44.300781 48.238281 L 44.646484 48.300781 L 45.447266 47.898438 L 45.605469 47.017578 L 44.994141 46.361328 L 44.646484 46.300781 z M 47.523438 49.074219 L 46.722656 49.476562 L 46.564453 50.357422 L 47.177734 51.011719 L 47.523438 51.074219 L 48.324219 50.673828 L 48.482422 49.791016 L 47.871094 49.136719 L 47.523438 49.074219 z M 50.755859 51.425781 L 49.953125 51.826172 L 49.796875 52.708984 L 50.408203 53.363281 L 50.755859 53.425781 L 51.556641 53.023438 L 51.714844 52.142578 L 51.101562 51.488281 L 50.755859 51.425781 z M 54.265625 53.330078 L 53.464844 53.730469 L 53.306641 54.613281 L 53.919922 55.267578 L 54.265625 55.330078 L 55.068359 54.927734 L 55.224609 54.046875 L 54.613281 53.392578 L 54.265625 53.330078 z"/></svg>