<?xml version="1.0"?><svg fill="#000000" xmlns="http://www.w3.org/2000/svg"  viewBox="0 0 80 80" width="50px" height="50px">    <path d="M 19.279297 9.5019531 L 17.492188 10.042969 C 9.103956 12.585207 3 20.374271 3 29.580078 C 3 36.285465 6.2413597 42.242706 11.240234 45.964844 C 8.6541525 48.133841 7 51.355329 7 55 C 7 61.615466 12.384534 67 19 67 L 66 67 C 72.063407 67 77 62.063407 77 56 C 77 51.289298 73.974769 47.358671 69.798828 45.796875 C 69.890764 45.206341 70 44.621006 70 44 C 70 37.384534 64.615466 32 58 32 C 57.215185 32 56.482034 32.153541 55.748047 32.298828 C 53.489192 26.872313 48.234628 23 42 23 C 35.487372 23 30.032989 27.207941 27.976562 33.027344 C 22.026078 29.975878 17.945313 23.794045 17.945312 16.636719 C 17.945312 14.777028 18.228216 12.984707 18.740234 11.289062 L 19.279297 9.5019531 z M 56.505859 10 A 1.0001 1.0001 0 0 0 55.535156 10.738281 L 55.033203 12.585938 L 53.673828 13.054688 A 1.0001 1.0001 0 0 0 53.673828 14.945312 L 55.033203 15.414062 L 55.535156 17.261719 A 1.0001 1.0001 0 0 0 57.464844 17.261719 L 57.966797 15.414062 L 59.326172 14.945312 A 1.0001 1.0001 0 0 0 59.326172 13.054688 L 57.966797 12.585938 L 57.464844 10.738281 A 1.0001 1.0001 0 0 0 56.505859 10 z M 31.505859 12 A 1.0001 1.0001 0 0 0 30.535156 12.738281 L 30.033203 14.585938 L 28.673828 15.054688 A 1.0001 1.0001 0 0 0 28.673828 16.945312 L 30.033203 17.414062 L 30.535156 19.261719 A 1.0001 1.0001 0 0 0 32.464844 19.261719 L 32.966797 17.414062 L 34.326172 16.945312 A 1.0001 1.0001 0 0 0 34.326172 15.054688 L 32.966797 14.585938 L 32.464844 12.738281 A 1.0001 1.0001 0 0 0 31.505859 12 z M 16.529297 12.708984 C 16.271539 13.999306 15.945314 15.26977 15.945312 16.636719 C 15.945312 24.139098 20.002393 30.700164 26.042969 34.248047 C 21.516571 35.074681 18.006605 38.677662 17.255859 43.25 C 15.717221 43.480207 14.275112 44.002569 12.980469 44.748047 C 8.1628379 41.426914 5 35.883022 5 29.580078 C 5 21.871373 9.8224063 15.459013 16.529297 12.708984 z M 66.505859 19 A 1.0001 1.0001 0 0 0 65.535156 19.738281 L 65.033203 21.585938 L 63.673828 22.054688 A 1.0001 1.0001 0 0 0 63.673828 23.945312 L 65.033203 24.414062 L 65.535156 26.261719 A 1.0001 1.0001 0 0 0 67.464844 26.261719 L 67.966797 24.414062 L 69.326172 23.945312 A 1.0001 1.0001 0 0 0 69.326172 22.054688 L 67.966797 21.585938 L 67.464844 19.738281 A 1.0001 1.0001 0 0 0 66.505859 19 z M 42 25 C 47.680364 25 52.481884 28.638988 54.257812 33.703125 L 54.5625 34.574219 L 55.455078 34.339844 C 56.277622 34.123868 57.125943 34 58 34 C 63.534534 34 68 38.465466 68 44 C 68 44.742234 67.91181 45.465529 67.755859 46.171875 L 67.552734 47.091797 L 68.458984 47.349609 C 72.229774 48.420039 75 51.874185 75 56 C 75 60.982593 70.982593 65 66 65 L 19 65 C 13.465466 65 9 60.534534 9 55 C 9 49.758108 13.012774 45.484328 18.132812 45.044922 L 18.824219 44.984375 A 1 1 0 0 0 19 45 A 1 1 0 0 0 20 44 A 1 1 0 0 0 19.228516 43.027344 C 20.127143 39.004894 23.698184 36 28 36 C 28.03121 36 28.128399 36.010925 28.298828 36.015625 L 29.126953 36.039062 L 29.302734 35.228516 C 30.572568 29.383376 35.762062 25 42 25 z M 32 35 A 1 1 0 0 0 31 36 A 1 1 0 0 0 32 37 A 1 1 0 0 0 33 36 A 1 1 0 0 0 32 35 z M 56 36 A 1 1 0 0 0 55 37 A 1 1 0 0 0 56 38 A 1 1 0 0 0 57 37 A 1 1 0 0 0 56 36 z M 35 37 A 1 1 0 0 0 34 38 A 1 1 0 0 0 35 39 A 1 1 0 0 0 36 38 A 1 1 0 0 0 35 37 z M 56 40 A 1 1 0 0 0 55 41 A 1 1 0 0 0 56 42 A 1 1 0 0 0 57 41 A 1 1 0 0 0 56 40 z M 23 44 A 1 1 0 0 0 22 45 A 1 1 0 0 0 23 46 A 1 1 0 0 0 24 45 A 1 1 0 0 0 23 44 z M 27 46 A 1 1 0 0 0 26 47 A 1 1 0 0 0 27 48 A 1 1 0 0 0 28 47 A 1 1 0 0 0 27 46 z M 67 49 A 1 1 0 0 0 66 50 A 1 1 0 0 0 67 51 A 1 1 0 0 0 68 50 A 1 1 0 0 0 67 49 z M 65 52 A 1 1 0 0 0 64 53 A 1 1 0 0 0 65 54 A 1 1 0 0 0 66 53 A 1 1 0 0 0 65 52 z"/></svg>