<svg fill="#212529" xmlns="http://www.w3.org/2000/svg"  viewBox="0 0 80 80" width="50px" height="50px"><path d="M 58.5 4.2167969 L 57.671875 5.4394531 C 57.671875 5.4394531 56.778553 6.7579205 55.880859 8.3359375 C 55.432013 9.124946 54.98029 9.9793612 54.628906 10.794922 C 54.277523 11.610482 54 12.349964 54 13.138672 C 54 15.63969 56.01587 17.707031 58.5 17.707031 C 60.98413 17.707031 63 15.63969 63 13.138672 C 63 12.349964 62.722477 11.610482 62.371094 10.794922 C 62.01971 9.9793612 61.567987 9.124946 61.119141 8.3359375 C 60.221447 6.7579205 59.328125 5.4394531 59.328125 5.4394531 L 58.5 4.2167969 z M 58.5 7.9003906 C 58.823627 8.407456 58.941701 8.5522404 59.380859 9.3242188 C 59.807013 10.073335 60.23029 10.878341 60.535156 11.585938 C 60.840023 12.293532 61 12.94188 61 13.138672 C 61 14.579653 59.88187 15.707031 58.5 15.707031 C 57.11813 15.707031 56 14.579653 56 13.138672 C 56 12.94188 56.159977 12.293533 56.464844 11.585938 C 56.76971 10.878341 57.192987 10.073335 57.619141 9.3242188 C 58.058299 8.5522405 58.176373 8.407456 58.5 7.9003906 z M 13 8.2402344 L 12.177734 9.4316406 C 12.177734 9.4316406 11.158022 10.905956 10.134766 12.669922 C 9.623137 13.551905 9.1079442 14.507933 8.7089844 15.416016 C 8.3100246 16.324098 8 17.145954 8 18 C 8 20.749516 10.250484 23 13 23 C 15.749516 23 18 20.749516 18 18 C 18 17.145954 17.689975 16.324098 17.291016 15.416016 C 16.892056 14.507933 16.376863 13.551905 15.865234 12.669922 C 14.841978 10.905956 13.822266 9.4316406 13.822266 9.4316406 L 13 8.2402344 z M 13 11.873047 C 13.377157 12.446952 13.568387 12.697461 14.134766 13.673828 C 14.623137 14.51572 15.107944 15.421692 15.458984 16.220703 C 15.810025 17.019714 16 17.749546 16 18 C 16 19.668484 14.668484 21 13 21 C 11.331516 21 10 19.668484 10 18 C 10 17.749546 10.189975 17.019714 10.541016 16.220703 C 10.892056 15.421692 11.376863 14.51572 11.865234 13.673828 C 12.431613 12.697461 12.622843 12.446952 13 11.873047 z M 39.984375 12.804688 A 1.0001 1.0001 0 0 0 39 13.818359 L 39 17.025391 C 22.371571 17.538283 9 30.7503 9 47 L 11 47 C 11 46.330689 11.504362 45.452814 12.382812 44.759766 C 13.261264 44.066717 14.452866 43.605469 15.455078 43.605469 C 16.45729 43.605469 17.648892 44.066717 18.527344 44.759766 C 19.405795 45.452814 19.910156 46.330689 19.910156 47 L 21.910156 47 C 21.910156 46.338385 22.401217 45.485491 23.382812 44.791016 C 24.36441 44.096541 25.771341 43.605469 27.273438 43.605469 C 28.774971 43.605469 30.182303 44.0965 31.164062 44.791016 C 32.145823 45.485531 32.638672 46.338536 32.638672 47 L 34.638672 47 C 34.638672 46.306998 35.09735 45.466806 36.033203 44.78125 C 36.784058 44.231214 37.818737 43.822037 39 43.675781 L 39 67 C 39 69.221812 37.221812 71 35 71 C 32.778188 71 31 69.221812 31 67 L 31 65.636719 A 1.0001 1.0001 0 1 0 29 65.636719 L 29 67 C 29 70.302188 31.697812 73 35 73 C 38.302188 73 41 70.302188 41 67 L 41 43.685547 C 42.194619 43.848892 43.213581 44.260324 43.953125 44.789062 C 44.912775 45.475167 45.365234 46.307149 45.365234 47 L 47.365234 47 C 47.365234 46.338385 47.858247 45.485491 48.839844 44.791016 C 49.82144 44.096541 51.228373 43.605469 52.730469 43.605469 C 54.232003 43.605469 55.637381 44.0965 56.619141 44.791016 C 57.6009 45.485531 58.09375 46.338536 58.09375 47 L 58.09375 47.001953 L 60.09375 47 L 60.09375 46.998047 C 60.092842 46.329183 60.596745 45.452683 61.474609 44.759766 C 62.352474 44.066848 63.54332 43.605469 64.544922 43.605469 C 65.547134 43.605469 66.738736 44.066717 67.617188 44.759766 C 68.495638 45.452861 69 46.330689 69 47 L 71 47 C 71 30.7503 57.628429 17.538283 41 17.025391 L 41 13.818359 A 1.0001 1.0001 0 0 0 39.984375 12.804688 z M 71.154297 14.216797 L 70.326172 15.439453 C 70.326172 15.439453 69.595519 16.515873 68.861328 17.806641 C 68.494233 18.452025 68.124051 19.152832 67.833984 19.826172 C 67.543918 20.499512 67.308594 21.108034 67.308594 21.804688 C 67.308594 23.937527 69.031406 25.707031 71.154297 25.707031 C 73.277187 25.707031 75 23.937527 75 21.804688 C 75 21.108034 74.764676 20.499512 74.474609 19.826172 C 74.184543 19.152832 73.812409 18.452025 73.445312 17.806641 C 72.711122 16.515873 71.982422 15.439453 71.982422 15.439453 L 71.154297 14.216797 z M 71.154297 17.900391 C 71.386648 18.271555 71.43128 18.310128 71.707031 18.794922 C 72.051436 19.400413 72.393161 20.051808 72.636719 20.617188 C 72.880277 21.182566 73 21.69984 73 21.804688 C 73 22.877848 72.175406 23.707031 71.154297 23.707031 C 70.133187 23.707031 69.308594 22.877847 69.308594 21.804688 C 69.308594 21.699841 69.428317 21.182565 69.671875 20.617188 C 69.915433 20.051808 70.255205 19.400413 70.599609 18.794922 C 70.875523 18.309844 70.921862 18.271674 71.154297 17.900391 z M 39.232422 19.017578 L 39.376953 19.265625 L 40.041016 19.341797 L 40.298828 19.404297 L 40.521484 19.220703 L 40.572266 19.191406 L 40.648438 19.125 L 40.654297 19.111328 L 40.767578 19.017578 C 41.53876 19.037003 42.3024 19.083641 43.056641 19.160156 L 43.216797 19.271484 L 43.306641 19.314453 L 44.148438 19.287109 C 44.970573 19.401194 45.782604 19.547117 46.580078 19.726562 L 46.25 20.089844 L 46.417969 20.96875 L 46.648438 21.179688 L 46.644531 21.183594 L 46.677734 21.207031 L 46.685547 21.212891 L 46.716797 21.236328 L 47.603516 21.369141 L 48.240234 20.740234 L 48.15625 20.132812 C 58.893738 23.182844 66.970796 32.102443 68.587891 43.037109 C 67.421955 42.189337 66.009751 41.605469 64.544922 41.605469 C 62.976524 41.605469 61.440261 42.237621 60.234375 43.189453 C 59.773094 43.553552 59.413484 44.015011 59.068359 44.478516 C 58.692886 44.000974 58.297849 43.5278 57.775391 43.158203 C 56.43215 42.207969 54.656935 41.605469 52.730469 41.605469 C 50.803565 41.605469 49.026747 42.207928 47.683594 43.158203 C 47.157265 43.530578 46.757686 44.006432 46.380859 44.488281 C 46.018251 44.008716 45.635796 43.534287 45.115234 43.162109 C 43.774384 42.203464 41.960008 41.605469 39.892578 41.605469 C 37.922576 41.605469 36.160961 42.208775 34.851562 43.167969 C 34.346612 43.537869 33.974924 44.009871 33.619141 44.484375 C 33.242777 44.004164 32.843245 43.529517 32.318359 43.158203 C 30.975119 42.207969 29.199903 41.605469 27.273438 41.605469 C 25.346532 41.605469 23.571669 42.207928 22.228516 43.158203 C 21.705311 43.528368 21.309281 44.002057 20.933594 44.480469 C 20.58802 44.016564 20.22753 43.55387 19.765625 43.189453 C 18.559326 42.237752 17.023866 41.605469 15.455078 41.605469 C 13.990249 41.605469 12.578045 42.189337 11.412109 43.037109 C 13.029322 32.101647 21.107046 23.180257 31.845703 20.130859 L 31.707031 20.390625 L 32.085938 21.203125 L 32.962891 21.384766 L 33.283203 21.236328 L 33.314453 21.212891 L 33.322266 21.207031 L 33.355469 21.183594 L 33.345703 21.169922 L 33.785156 20.439453 L 33.490234 19.712891 C 34.316585 19.529048 35.15713 19.377319 36.009766 19.263672 L 36.351562 19.402344 L 36.693359 19.314453 L 36.783203 19.271484 L 36.865234 19.167969 C 37.644934 19.086801 38.434548 19.037675 39.232422 19.017578 z M 42.591797 20.613281 L 41.748047 20.916016 L 41.484375 21.771484 L 41.603516 22.103516 L 41.654297 22.191406 L 42.400391 22.685547 L 43.244141 22.384766 L 43.507812 21.527344 L 43.388672 21.195312 L 43.337891 21.109375 L 42.591797 20.613281 z M 37.759766 20.632812 L 36.888672 20.839844 L 36.662109 21.109375 L 36.611328 21.195312 L 36.560547 22.089844 L 37.248047 22.666016 L 38.121094 22.460938 L 38.345703 22.191406 L 38.396484 22.103516 L 38.447266 21.208984 L 37.759766 20.632812 z M 50.255859 21.892578 L 49.544922 22.439453 L 49.560547 23.335938 L 49.775391 23.615234 L 49.849609 23.681641 L 50.712891 23.921875 L 51.421875 23.375 L 51.408203 22.478516 L 51.191406 22.201172 L 51.117188 22.132812 L 50.255859 21.892578 z M 29.181641 21.945312 L 28.882812 22.132812 L 28.808594 22.201172 L 28.484375 23.035156 L 28.958984 23.794922 L 29.851562 23.869141 L 30.150391 23.681641 L 30.224609 23.615234 L 30.548828 22.779297 L 30.074219 22.019531 L 29.181641 21.945312 z M 35.955078 24.369141 L 35.138672 24.734375 L 34.966797 25.042969 L 34.933594 25.136719 L 35.052734 26.025391 L 35.835938 26.460938 L 36.654297 26.095703 L 36.826172 25.787109 L 36.857422 25.693359 L 36.738281 24.804688 L 35.955078 24.369141 z M 44.394531 24.416016 L 43.507812 24.552734 L 43.087891 25.34375 L 43.142578 25.693359 L 43.173828 25.787109 L 43.814453 26.414062 L 44.699219 26.277344 L 45.121094 25.486328 L 45.066406 25.136719 L 45.033203 25.042969 L 44.394531 24.416016 z M 53.253906 24.816406 L 52.46875 25.25 L 52.347656 26.138672 L 52.517578 26.447266 L 52.582031 26.523438 L 53.398438 26.892578 L 54.181641 26.458984 L 54.304688 25.570312 L 54.132812 25.263672 L 54.070312 25.185547 L 53.253906 24.816406 z M 27.089844 24.892578 L 26.197266 24.955078 L 25.929688 25.185547 L 25.867188 25.263672 L 25.671875 26.136719 L 26.257812 26.816406 L 27.152344 26.753906 L 27.417969 26.523438 L 27.482422 26.447266 L 27.675781 25.572266 L 27.089844 24.892578 z M 55.789062 28.15625 L 54.947266 28.460938 L 54.685547 29.318359 L 54.804688 29.648438 L 54.853516 29.736328 L 55.601562 30.228516 L 56.445312 29.925781 L 56.707031 29.068359 L 56.587891 28.738281 L 56.537109 28.650391 L 55.789062 28.15625 z M 24.5625 28.177734 L 23.689453 28.380859 L 23.462891 28.650391 L 23.412109 28.738281 L 23.361328 29.632812 L 24.046875 30.208984 L 24.917969 30.005859 L 25.146484 29.736328 L 25.195312 29.648438 L 25.248047 28.753906 L 24.5625 28.177734 z M 34.763672 28.322266 L 33.994141 28.78125 L 33.857422 29.105469 L 33.835938 29.203125 L 34.056641 30.072266 L 34.884766 30.416016 L 35.65625 29.957031 L 35.791016 29.632812 L 35.8125 29.535156 L 35.591797 28.666016 L 34.763672 28.322266 z M 45.578125 28.410156 L 44.681641 28.445312 L 44.173828 29.181641 L 44.1875 29.535156 L 44.208984 29.632812 L 44.773438 30.328125 L 45.667969 30.292969 L 46.177734 29.556641 L 46.164062 29.203125 L 46.142578 29.105469 L 45.578125 28.410156 z M 22.630859 31.841797 L 21.800781 32.179688 L 21.619141 32.480469 L 21.583984 32.574219 L 21.671875 33.464844 L 22.4375 33.929688 L 23.267578 33.591797 L 23.451172 33.291016 L 23.486328 33.197266 L 23.398438 32.304688 L 22.630859 31.841797 z M 57.71875 31.876953 L 56.839844 32.044922 L 56.447266 32.851562 L 56.513672 33.197266 L 56.548828 33.291016 L 57.210938 33.894531 L 58.091797 33.726562 L 58.482422 32.919922 L 58.416016 32.574219 L 58.380859 32.480469 L 57.71875 31.876953 z M 33.978516 32.376953 L 33.259766 32.910156 L 33.158203 33.248047 L 33.146484 33.347656 L 33.455078 34.189453 L 34.314453 34.445312 L 35.033203 33.910156 L 35.134766 33.572266 L 35.146484 33.472656 L 34.835938 32.632812 L 33.978516 32.376953 z M 45.458984 32.439453 L 44.876953 33.121094 L 44.853516 33.472656 L 44.865234 33.572266 L 45.355469 34.324219 L 46.248047 34.380859 L 46.830078 33.699219 L 46.853516 33.347656 L 46.841797 33.248047 L 46.353516 32.498047 L 45.458984 32.439453 z M 21.333984 35.777344 L 20.572266 36.248047 L 20.441406 36.576172 L 20.421875 36.673828 L 20.658203 37.539062 L 21.492188 37.867188 L 22.253906 37.396484 L 22.382812 37.068359 L 22.402344 36.970703 L 22.167969 36.107422 L 21.333984 35.777344 z M 59.005859 35.871094 L 58.111328 35.888672 L 57.589844 36.619141 L 57.597656 36.970703 L 57.617188 37.068359 L 58.167969 37.775391 L 59.064453 37.755859 L 59.585938 37.027344 L 59.578125 36.673828 L 59.558594 36.576172 L 59.005859 35.871094 z M 33.5625 36.466797 L 32.869141 37.035156 L 32.785156 37.376953 L 32.777344 37.476562 L 33.126953 38.302734 L 33.996094 38.517578 L 34.689453 37.951172 L 34.773438 37.607422 L 34.78125 37.507812 L 34.431641 36.683594 L 33.5625 36.466797 z M 45.871094 36.503906 L 45.259766 37.158203 L 45.21875 37.507812 L 45.226562 37.607422 L 45.679688 38.380859 L 46.570312 38.480469 L 47.183594 37.828125 L 47.222656 37.476562 L 47.214844 37.376953 L 46.761719 36.605469 L 45.871094 36.503906 z M 20.685547 39.873047 L 20.013672 40.466797 L 19.941406 40.8125 L 19.939453 40.912109 L 20.318359 41.724609 L 21.195312 41.90625 L 21.867188 41.3125 L 21.9375 40.96875 L 21.941406 40.869141 L 21.5625 40.056641 L 20.685547 39.873047 z M 58.748047 39.888672 L 58.111328 40.519531 L 58.058594 40.869141 L 58.0625 40.96875 L 58.486328 41.757812 L 59.371094 41.890625 L 60.007812 41.261719 L 60.060547 40.912109 L 60.058594 40.8125 L 59.634766 40.023438 L 58.748047 39.888672 z M 33.382812 40.576172 L 32.714844 41.173828 L 32.646484 41.519531 L 32.644531 41.619141 L 33.029297 42.427734 L 33.90625 42.605469 L 34.574219 42.005859 L 34.642578 41.660156 L 34.644531 41.560547 L 34.261719 40.751953 L 33.382812 40.576172 z M 46.050781 40.587891 L 45.410156 41.212891 L 45.355469 41.560547 L 45.357422 41.660156 L 45.775391 42.453125 L 46.660156 42.591797 L 47.300781 41.966797 L 47.355469 41.619141 L 47.353516 41.519531 L 46.935547 40.726562 L 46.050781 40.587891 z"/></svg>