<?xml version="1.0"?><svg fill="#000000" xmlns="http://www.w3.org/2000/svg"  viewBox="0 0 80 80" width="50px" height="50px">    <path d="M 40 6 C 31.930187 6 25.21248 11.656534 23.482422 19.212891 C 18.594954 19.846429 14.693788 23.364425 13.488281 28.052734 C 6.0095083 28.328921 0 34.454863 0 42 C 0 49.72039 6.27961 56 14 56 L 21 56 A 1.0001 1.0001 0 1 0 21 54 L 14 54 C 7.36039 54 2 48.63961 2 42 C 2 35.36039 7.36039 30 14 30 C 13.97025 30 14.0317 30.009766 14.189453 30.009766 L 15.023438 30.009766 L 15.025391 29.998047 A 1 1 0 0 0 16 29 A 1 1 0 0 0 15.443359 28.105469 C 16.624127 24.198793 20.117796 21.306089 24.349609 21.033203 L 24.921875 20.998047 A 1 1 0 0 0 25 21 A 1 1 0 0 0 26 20 A 1 1 0 0 0 25.517578 19.144531 C 27.219484 12.73162 33.040588 8 40 8 C 46.433135 8 51.888211 12.047962 54.025391 17.724609 L 54.033203 17.746094 A 1 1 0 0 0 54 18 A 1 1 0 0 0 55 19 A 1 1 0 0 0 55.980469 18.199219 C 56.641881 18.082497 57.311956 18 58 18 C 64.63961 18 70 23.36039 70 30 C 70 31.051177 69.851543 32.070721 69.591797 33.056641 L 69.330078 34.046875 L 70.326172 34.283203 C 74.723841 35.332864 78 39.269546 78 44 C 78 49.534534 73.534534 54 68 54 L 57 54 A 1.0001 1.0001 0 1 0 57 56 L 68 56 C 74.615466 56 80 50.615466 80 44 C 80 38.672143 76.459385 34.258886 71.640625 32.699219 C 71.819165 31.820605 72 30.939119 72 30 C 72 22.27961 65.72039 16 58 16 C 57.131846 16 56.313684 16.153389 55.498047 16.306641 C 52.885208 10.277004 46.980544 6 40 6 z M 29 19 A 1 1 0 0 0 28 20 A 1 1 0 0 0 29 21 A 1 1 0 0 0 30 20 A 1 1 0 0 0 29 19 z M 33 21 A 1 1 0 0 0 32 22 A 1 1 0 0 0 33 23 A 1 1 0 0 0 34 22 A 1 1 0 0 0 33 21 z M 56 21 A 1 1 0 0 0 55 22 A 1 1 0 0 0 56 23 A 1 1 0 0 0 57 22 A 1 1 0 0 0 56 21 z M 36 24 A 1 1 0 0 0 35 25 A 1 1 0 0 0 36 26 A 1 1 0 0 0 37 25 A 1 1 0 0 0 36 24 z M 56 25 A 1 1 0 0 0 55 26 A 1 1 0 0 0 56 27 A 1 1 0 0 0 57 26 A 1 1 0 0 0 56 25 z M 19 28 A 1 1 0 0 0 18 29 A 1 1 0 0 0 19 30 A 1 1 0 0 0 20 29 A 1 1 0 0 0 19 28 z M 23 30 A 1 1 0 0 0 22 31 A 1 1 0 0 0 23 32 A 1 1 0 0 0 24 31 A 1 1 0 0 0 23 30 z M 26 33 A 1 1 0 0 0 25 34 A 1 1 0 0 0 26 35 A 1 1 0 0 0 27 34 A 1 1 0 0 0 26 33 z M 69 36 A 1 1 0 0 0 68 37 A 1 1 0 0 0 69 38 A 1 1 0 0 0 70 37 A 1 1 0 0 0 69 36 z M 41 37.240234 L 40.177734 38.431641 C 40.177734 38.431641 39.158029 39.905816 38.134766 41.669922 C 37.623134 42.551975 37.107945 43.507782 36.708984 44.416016 C 36.310024 45.32425 36 46.145841 36 47 C 36 49.749516 38.250484 52 41 52 C 43.749516 52 46 49.749516 46 47 C 46 46.145954 45.689969 45.324183 45.291016 44.416016 C 44.892062 43.507849 44.376859 42.552026 43.865234 41.669922 C 42.841986 39.905713 41.822266 38.431641 41.822266 38.431641 L 41 37.240234 z M 67 39 A 1 1 0 0 0 66 40 A 1 1 0 0 0 67 41 A 1 1 0 0 0 68 40 A 1 1 0 0 0 67 39 z M 41 40.871094 C 41.37716 41.445097 41.568382 41.695359 42.134766 42.671875 C 42.623141 43.513896 43.107938 44.421589 43.458984 45.220703 C 43.810031 46.019817 44 46.749546 44 47 C 44 48.668484 42.668484 50 41 50 C 39.331516 50 38 48.668484 38 47 C 38 46.749159 38.189976 46.017891 38.541016 45.21875 C 38.892055 44.419609 39.376866 43.513822 39.865234 42.671875 C 40.431609 41.695444 40.622846 41.445007 41 40.871094 z M 30 55.240234 L 29.177734 56.431641 C 29.177734 56.431641 28.158029 57.905816 27.134766 59.669922 C 26.623134 60.551975 26.107945 61.507782 25.708984 62.416016 C 25.310024 63.32425 25 64.145841 25 65 C 25 67.749516 27.250484 70 30 70 C 32.749516 70 35 67.749516 35 65 C 35 64.145954 34.689969 63.324183 34.291016 62.416016 C 33.892062 61.507849 33.376859 60.552026 32.865234 59.669922 C 31.841986 57.905713 30.822266 56.431641 30.822266 56.431641 L 30 55.240234 z M 30 58.871094 C 30.37716 59.445097 30.568382 59.695359 31.134766 60.671875 C 31.623141 61.513896 32.107938 62.421589 32.458984 63.220703 C 32.810031 64.019817 33 64.749546 33 65 C 33 66.668484 31.668484 68 30 68 C 28.331516 68 27 66.668484 27 65 C 27 64.749159 27.189976 64.017891 27.541016 63.21875 C 27.892055 62.419609 28.376866 61.513822 28.865234 60.671875 C 29.431609 59.695444 29.622846 59.445007 30 58.871094 z M 50 59.240234 L 49.177734 60.431641 C 49.177734 60.431641 48.158029 61.905816 47.134766 63.669922 C 46.623134 64.551975 46.107945 65.507782 45.708984 66.416016 C 45.310024 67.32425 45 68.145841 45 69 C 45 71.749516 47.250484 74 50 74 C 52.749516 74 55 71.749516 55 69 C 55 68.145954 54.689969 67.324183 54.291016 66.416016 C 53.892062 65.507849 53.376859 64.552026 52.865234 63.669922 C 51.841986 61.905713 50.822266 60.431641 50.822266 60.431641 L 50 59.240234 z M 50 62.871094 C 50.37716 63.445097 50.568382 63.695359 51.134766 64.671875 C 51.623141 65.513896 52.107938 66.421589 52.458984 67.220703 C 52.810031 68.019817 53 68.749546 53 69 C 53 70.668484 51.668484 72 50 72 C 48.331516 72 47 70.668484 47 69 C 47 68.749159 47.189976 68.017891 47.541016 67.21875 C 47.892055 66.419609 48.376866 65.513822 48.865234 64.671875 C 49.431609 63.695444 49.622846 63.445007 50 62.871094 z"/></svg>