<svg fill="#000000" xmlns="http://www.w3.org/2000/svg"  viewBox="0 0 80 80" width="50px" height="50px"><path d="M 22.984375 5.9863281 A 1.0001 1.0001 0 0 0 22 7 L 22 9.9746094 A 1.0001 1.0001 0 0 0 22.003906 10.050781 C 21.177739 10.098961 20.36285 10.185254 19.572266 10.347656 A 1.0001 1.0001 0 0 0 19.558594 10.294922 L 19.076172 8.4960938 A 1.0001 1.0001 0 0 0 18.130859 7.7421875 A 1.0001 1.0001 0 0 0 17.144531 9.0136719 L 17.626953 10.8125 A 1.0001 1.0001 0 0 0 17.646484 10.876953 C 16.865655 11.13677 16.112853 11.454781 15.386719 11.820312 A 1.0001607 1.0001607 0 0 0 15.353516 11.755859 L 13.865234 9.1796875 A 1.0001 1.0001 0 0 0 12.955078 8.6679688 A 1.0001 1.0001 0 0 0 12.134766 10.179688 L 13.621094 12.755859 A 1.0001607 1.0001607 0 0 0 13.65625 12.810547 C 12.972934 13.261883 12.332382 13.768071 11.722656 14.310547 A 1.0001 1.0001 0 0 0 11.667969 14.253906 L 10.351562 12.9375 A 1.0001 1.0001 0 0 0 9.6328125 12.634766 A 1.0001 1.0001 0 0 0 8.9375 14.351562 L 10.253906 15.667969 A 1.0001 1.0001 0 0 0 10.3125 15.722656 C 9.7696865 16.332667 9.2621259 16.972567 8.8105469 17.65625 A 1.0001607 1.0001607 0 0 0 8.7558594 17.621094 L 6.1796875 16.134766 A 1.0001 1.0001 0 0 0 5.6035156 15.994141 A 1.0001 1.0001 0 0 0 5.1796875 17.865234 L 7.7558594 19.353516 A 1.0001607 1.0001607 0 0 0 7.8203125 19.386719 C 7.4547815 20.112853 7.13677 20.865655 6.8769531 21.646484 A 1.0001 1.0001 0 0 0 6.8125 21.626953 L 5.0136719 21.144531 A 1.0001 1.0001 0 0 0 4.7167969 21.107422 A 1.0001 1.0001 0 0 0 4.4960938 23.076172 L 6.2949219 23.558594 A 1.0001 1.0001 0 0 0 6.3476562 23.570312 C 6.185167 24.360867 6.0990539 25.175809 6.0507812 26.001953 A 1.0001 1.0001 0 0 0 5.9746094 26 L 3 26 A 1.0001 1.0001 0 1 0 3 28 L 5.9746094 28 A 1.0001 1.0001 0 0 0 6.03125 27.998047 C 6.0792575 28.824592 6.1894031 29.63469 6.3515625 30.425781 A 1.0001 1.0001 0 0 0 6.2949219 30.441406 L 4.4960938 30.923828 A 1.0001 1.0001 0 1 0 5.0136719 32.855469 L 6.8125 32.373047 A 1.0001 1.0001 0 0 0 6.8652344 32.357422 C 7.1246767 33.138835 7.4434262 33.890495 7.8085938 34.617188 A 1.0001 1.0001 0 0 0 7.7558594 34.646484 L 5.1796875 36.134766 A 1.0001 1.0001 0 1 0 6.1796875 37.865234 L 8.7558594 36.378906 A 1.0001 1.0001 0 0 0 8.8085938 36.345703 C 9.2594518 37.029061 9.7548798 37.681384 10.296875 38.291016 A 1.0001 1.0001 0 0 0 10.253906 38.332031 L 8.9375 39.648438 A 1.0001 1.0001 0 1 0 10.351562 41.0625 L 11.667969 39.746094 A 1.0001 1.0001 0 0 0 11.708984 39.703125 C 11.89299 39.866824 12.082407 40.024015 12.273438 40.179688 C 9.0986434 42.30848 7 45.888705 7 50 C 7 56.615466 12.384534 62 19 62 L 23 62 A 1.0001 1.0001 0 1 0 23 60 L 19 60 C 13.465466 60 9 55.534534 9 50 C 9 44.758108 13.012774 40.484328 18.132812 40.044922 L 18.894531 39.978516 C 18.930932 39.982536 18.962533 40 19 40 C 19.552 40 20 39.552 20 39 C 20 38.527733 19.665031 38.149509 19.224609 38.044922 C 20.116694 34.013608 23.691895 31 28 31 C 28.03121 31 28.128399 31.010925 28.298828 31.015625 L 29.126953 31.039062 L 29.302734 30.228516 C 30.572568 24.383376 35.762062 20 42 20 C 47.680364 20 52.481883 23.638988 54.257812 28.703125 L 54.5625 29.574219 L 55.455078 29.339844 C 56.277622 29.123868 57.125943 29 58 29 C 63.534534 29 68 33.465466 68 39 C 68 39.742234 67.91181 40.465529 67.755859 41.171875 L 67.552734 42.091797 L 68.458984 42.349609 C 72.229774 43.420039 75 46.874185 75 51 C 75 55.982593 70.982593 60 66 60 L 58 60 A 1.0001 1.0001 0 1 0 58 62 L 66 62 C 72.063407 62 77 57.063407 77 51 C 77 46.289298 73.974769 42.358671 69.798828 40.796875 C 69.890764 40.206341 70 39.621006 70 39 C 70 32.384534 64.615466 27 58 27 C 57.215185 27 56.482034 27.153541 55.748047 27.298828 C 53.489192 21.872313 48.234628 18 42 18 C 41.288387 18 40.658024 18.259331 39.972656 18.355469 L 40.820312 17.865234 A 1.0001 1.0001 0 0 0 40.365234 15.994141 A 1.0001 1.0001 0 0 0 39.820312 16.134766 L 37.244141 17.621094 A 1.0001 1.0001 0 0 0 37.191406 17.654297 C 36.740265 16.97066 36.243676 16.320732 35.701172 15.710938 A 1.0001 1.0001 0 0 0 35.746094 15.667969 L 37.0625 14.351562 A 1.0001 1.0001 0 0 0 36.335938 12.634766 A 1.0001 1.0001 0 0 0 35.648438 12.9375 L 34.332031 14.253906 A 1.0001 1.0001 0 0 0 34.287109 14.300781 C 33.677259 13.758467 33.029251 13.259659 32.345703 12.808594 A 1.0001607 1.0001607 0 0 0 32.378906 12.755859 L 33.865234 10.179688 A 1.0001 1.0001 0 0 0 33.015625 8.6660156 A 1.0001 1.0001 0 0 0 32.134766 9.1796875 L 30.646484 11.755859 A 1.0001607 1.0001607 0 0 0 30.619141 11.810547 C 29.892606 11.445284 29.136724 11.132578 28.355469 10.873047 A 1.0001 1.0001 0 0 0 28.373047 10.8125 L 28.855469 9.0136719 A 1.0001 1.0001 0 0 0 27.839844 7.7421875 A 1.0001 1.0001 0 0 0 26.923828 8.4960938 L 26.441406 10.294922 A 1.0001 1.0001 0 0 0 26.427734 10.353516 C 25.636213 10.191139 24.825141 10.085193 23.998047 10.037109 A 1.0001 1.0001 0 0 0 24 9.9746094 L 24 7 A 1.0001 1.0001 0 0 0 22.984375 5.9863281 z M 23 12 C 28.482931 12 33.267381 14.936407 35.884766 19.316406 C 31.853013 21.135411 28.840439 24.72312 27.646484 29.066406 C 22.36005 29.243247 18.093343 33.14939 17.255859 38.25 C 16.181663 38.410718 15.151639 38.710974 14.1875 39.130859 C 10.439389 36.404406 8 31.996847 8 27 C 8 18.703379 14.703379 12 23 12 z M 32 30 C 31.448 30 31 30.448 31 31 C 31 31.552 31.448 32 32 32 C 32.552 32 33 31.552 33 31 C 33 30.448 32.552 30 32 30 z M 56 31 C 55.448 31 55 31.448 55 32 C 55 32.552 55.448 33 56 33 C 56.552 33 57 32.552 57 32 C 57 31.448 56.552 31 56 31 z M 35 32 C 34.448 32 34 32.448 34 33 C 34 33.552 34.448 34 35 34 C 35.552 34 36 33.552 36 33 C 36 32.448 35.552 32 35 32 z M 56 35 C 55.448 35 55 35.448 55 36 C 55 36.552 55.448 37 56 37 C 56.552 37 57 36.552 57 36 C 57 35.448 56.552 35 56 35 z M 23 39 C 22.448 39 22 39.448 22 40 C 22 40.552 22.448 41 23 41 C 23.552 41 24 40.552 24 40 C 24 39.448 23.552 39 23 39 z M 27 41 C 26.448 41 26 41.448 26 42 C 26 42.552 26.448 43 27 43 C 27.552 43 28 42.552 28 42 C 28 41.448 27.552 41 27 41 z M 67 44 C 66.448 44 66 44.448 66 45 C 66 45.552 66.448 46 67 46 C 67.552 46 68 45.552 68 45 C 68 44.448 67.552 44 67 44 z M 65 47 C 64.448 47 64 47.448 64 48 C 64 48.552 64.448 49 65 49 C 65.552 49 66 48.552 66 48 C 66 47.448 65.552 47 65 47 z M 39 50 A 1.0001 1.0001 0 1 0 39 52 L 56 52 A 1.0001 1.0001 0 1 0 56 50 L 39 50 z M 19 55 A 1.0001 1.0001 0 1 0 19 57 L 44 57 A 1.0001 1.0001 0 1 0 44 55 L 19 55 z M 30 61 A 1.0001 1.0001 0 1 0 30 63 L 51 63 A 1.0001 1.0001 0 1 0 51 61 L 30 61 z M 42 66 A 1.0001 1.0001 0 1 0 42 68 L 71 68 A 1.0001 1.0001 0 1 0 71 66 L 42 66 z"/></svg>