<?xml version="1.0"?><svg fill="#212529" xmlns="http://www.w3.org/2000/svg"  viewBox="0 0 80 80" width="50px" height="50px">    <path d="M 40 9 C 32.083 9 25.244031 14.470328 23.457031 22.111328 C 18.584031 22.736328 14.597766 26.263672 13.384766 31.013672 C 5.9497656 31.337672 -1.1842379e-15 37.486 0 45 C 0 51.251261 4.1269426 56.534283 9.7929688 58.326172 C 9.287331 59.449698 9 60.691259 9 62 C 9 66.958516 13.041484 71 18 71 L 45 71 C 51.063407 71 56 66.063407 56 60 C 56 59.662552 55.979142 59.329811 55.949219 59 L 68 59 C 74.617 59 80 53.617 80 47 C 80 41.761 76.652141 37.208422 71.744141 35.607422 C 71.914141 34.730422 72 33.857 72 33 C 72 25.28 65.72 19 58 19 C 57.208 19 56.395219 19.074656 55.574219 19.222656 C 52.893219 13.074656 46.74 9 40 9 z M 40 11 C 46.2 11 51.835391 14.907609 54.025391 20.724609 L 54.033203 20.746094 A 1 1 0 0 0 54 21 A 1 1 0 0 0 55 22 A 1 1 0 0 0 55.978516 21.201172 C 56.663906 21.081028 57.343434 21 58 21 C 64.617 21 70 26.383 70 33 C 70 33.997 69.862797 35.024641 69.591797 36.056641 L 69.330078 37.046875 L 70.326172 37.283203 C 74.843172 38.361203 78 42.357 78 47 C 78 52.514 73.514 57 68 57 L 55.572266 57 C 54.261412 52.390802 50.022618 49 45 49 C 44.9318 49 44.86666 49.008466 44.798828 49.009766 C 44.276557 43.984637 40.160254 40 35 40 C 30.490708 40 26.755922 43.039573 25.515625 47.15625 C 22.166915 47.55579 19.47312 49.862646 18.488281 53 L 18 53 C 15.081416 53 12.487828 54.405153 10.841797 56.568359 C 5.7537867 55.177934 2 50.523198 2 45 C 2 38.385 7.3804844 33.001953 14.021484 33.001953 L 14.025391 33.001953 L 15.019531 33.023438 L 15.023438 32.998047 A 1 1 0 0 0 16 32 A 1 1 0 0 0 15.443359 31.105469 C 16.632728 27.156432 20.148551 24.305867 24.349609 24.035156 L 24.925781 23.998047 A 1 1 0 0 0 25 24 A 1 1 0 0 0 26 23 A 1 1 0 0 0 25.519531 22.146484 C 27.244817 15.627517 33.163004 11 40 11 z M 29 22 A 1 1 0 0 0 28 23 A 1 1 0 0 0 29 24 A 1 1 0 0 0 30 23 A 1 1 0 0 0 29 22 z M 33 24 A 1 1 0 0 0 32 25 A 1 1 0 0 0 33 26 A 1 1 0 0 0 34 25 A 1 1 0 0 0 33 24 z M 56 24 A 1 1 0 0 0 55 25 A 1 1 0 0 0 56 26 A 1 1 0 0 0 57 25 A 1 1 0 0 0 56 24 z M 36 27 A 1 1 0 0 0 35 28 A 1 1 0 0 0 36 29 A 1 1 0 0 0 37 28 A 1 1 0 0 0 36 27 z M 56 28 A 1 1 0 0 0 55 29 A 1 1 0 0 0 56 30 A 1 1 0 0 0 57 29 A 1 1 0 0 0 56 28 z M 19 31 A 1 1 0 0 0 18 32 A 1 1 0 0 0 19 33 A 1 1 0 0 0 20 32 A 1 1 0 0 0 19 31 z M 23 33 A 1 1 0 0 0 22 34 A 1 1 0 0 0 23 35 A 1 1 0 0 0 24 34 A 1 1 0 0 0 23 33 z M 26 36 A 1 1 0 0 0 25 37 A 1 1 0 0 0 26 38 A 1 1 0 0 0 27 37 A 1 1 0 0 0 26 36 z M 69 39 A 1 1 0 0 0 68 40 A 1 1 0 0 0 69 41 A 1 1 0 0 0 70 40 A 1 1 0 0 0 69 39 z M 35 42 C 39.427865 42 42.993538 45.565409 42.998047 49.992188 L 42.929688 51.162109 L 44.095703 51.046875 C 44.394855 51.01696 44.697503 51 45 51 C 49.982593 51 54 55.017407 54 60 C 54 64.982593 49.982593 69 45 69 L 18 69 C 14.122516 69 11 65.877484 11 62 C 11 58.122516 14.122516 55 18 55 L 19.974609 55 A 1 1 0 0 0 20 55 A 1 1 0 0 0 21 54 A 1 1 0 0 0 20.462891 53.115234 C 21.384422 50.780009 23.613519 49.108941 26.263672 49.013672 L 26.876953 48.992188 A 1 1 0 0 0 27 49 A 1 1 0 0 0 28 48 A 1 1 0 0 0 27.535156 47.154297 C 28.681198 44.144103 31.577413 42 35 42 z M 67 42 A 1 1 0 0 0 66 43 A 1 1 0 0 0 67 44 A 1 1 0 0 0 68 43 A 1 1 0 0 0 67 42 z M 30 48 A 1 1 0 0 0 29 49 A 1 1 0 0 0 30 50 A 1 1 0 0 0 31 49 A 1 1 0 0 0 30 48 z M 33 50 A 1 1 0 0 0 32 51 A 1 1 0 0 0 33 52 A 1 1 0 0 0 34 51 A 1 1 0 0 0 33 50 z M 35 53 A 1 1 0 0 0 34 54 A 1 1 0 0 0 35 55 A 1 1 0 0 0 36 54 A 1 1 0 0 0 35 53 z M 23 55 A 1 1 0 0 0 22 56 A 1 1 0 0 0 23 57 A 1 1 0 0 0 24 56 A 1 1 0 0 0 23 55 z M 25 58 A 1 1 0 0 0 24 59 A 1 1 0 0 0 25 60 A 1 1 0 0 0 26 59 A 1 1 0 0 0 25 58 z"/></svg>