<svg fill="#212529" xmlns="http://www.w3.org/2000/svg"  viewBox="0 0 128 128" width="500px" height="500px"><path d="M 64 7 C 62.3 7 61 8.3 61 10 L 61 28 C 61 29.7 62.3 31 64 31 C 65.7 31 67 29.7 67 28 L 67 10 C 67 8.3 65.7 7 64 7 z M 90.242188 12.785156 C 89.075 12.799219 87.95 13.474609 87.5 14.599609 L 81.400391 29.400391 C 80.800391 30.900391 81.5 32.700781 83 33.300781 C 83.3 33.400781 83.699609 33.5 84.099609 33.5 C 85.299609 33.5 86.400391 32.799609 86.900391 31.599609 L 93 16.900391 C 93.6 15.400391 92.900391 13.6 91.400391 13 C 91.025391 12.85 90.63125 12.780469 90.242188 12.785156 z M 37.857422 12.84375 C 37.468359 12.84375 37.074219 12.924609 36.699219 13.099609 C 35.199219 13.699609 34.399609 15.5 35.099609 17 L 41.199219 31.800781 C 41.699219 32.900781 42.8 33.599609 44 33.599609 C 44.4 33.599609 44.799609 33.500391 45.099609 33.400391 C 46.599609 32.800391 47.399219 31 46.699219 29.5 L 40.599609 14.699219 C 40.149609 13.574219 39.024609 12.84375 37.857422 12.84375 z M 17.863281 31.037109 C 17.100781 31.074609 16.350781 31.4 15.800781 32 C 14.700781 33.2 14.8 35.099219 16 36.199219 L 22.099609 41.699219 C 22.599609 42.299219 23.299609 42.5 24.099609 42.5 C 24.899609 42.5 25.700781 42.2 26.300781 41.5 C 27.400781 40.3 27.299609 38.400781 26.099609 37.300781 L 20 31.800781 C 19.4 31.250781 18.625781 30.999609 17.863281 31.037109 z M 109.0625 31.037109 C 108.3 31.049609 107.55 31.350391 107 31.900391 L 101.69922 37.300781 C 100.49922 38.500781 100.59922 40.4 101.69922 41.5 C 102.29922 42.1 103.00078 42.400391 103.80078 42.400391 C 104.50078 42.400391 105.30039 42.1 105.90039 41.5 L 111.19922 36.099609 C 112.39922 34.899609 112.29922 33.000391 111.19922 31.900391 C 110.59922 31.300391 109.825 31.024609 109.0625 31.037109 z M 64 40 C 39.9 40 15.300391 56.599219 1.4003906 82.199219 C 0.60039062 83.699219 1.0996094 85.500781 2.5996094 86.300781 C 3.9996094 87.000781 5.7996094 86.499609 6.5996094 85.099609 C 19.399609 61.699609 42.4 46 64 46 C 85.6 46 108.60039 61.699609 121.40039 85.099609 C 121.90039 86.099609 122.9 86.599609 124 86.599609 C 124.5 86.599609 125.00039 86.499219 125.40039 86.199219 C 126.90039 85.399219 127.39961 83.599609 126.59961 82.099609 C 112.69961 56.599609 88.1 40 64 40 z M 64 64 A 15 15 0 0 0 64 94 A 15 15 0 0 0 64 64 z M 19.246094 80.632812 C 18.667773 80.583008 18.0625 80.7 17.5 81 C 16 81.8 15.500781 83.599609 16.300781 85.099609 C 27.800781 106.19961 45.200391 118.40039 63.900391 118.40039 C 82.600391 118.40039 100 106.29961 111.5 85.099609 C 112.3 83.599609 111.80078 81.8 110.30078 81 C 108.80078 80.2 106.99922 80.699219 106.19922 82.199219 C 95.699219 101.39922 80.300781 112.30078 63.800781 112.30078 C 47.300781 112.30078 32.099609 101.29922 21.599609 82.199219 C 21.099609 81.261719 20.209961 80.71582 19.246094 80.632812 z"/></svg>