<svg fill="#000000" xmlns="http://www.w3.org/2000/svg"  viewBox="0 0 80 80" width="100px" height="100px"><path d="M 40 13 C 31.929688 13 25.210938 18.65625 23.484375 26.214844 C 18.59375 26.847656 14.695313 30.363281 13.488281 35.050781 C 6.007813 35.328125 0 41.453125 0 49 C 0 56.71875 6.28125 63 14 63 L 68 63 C 74.617188 63 80 57.617188 80 51 C 80 45.671875 76.460938 41.257813 71.640625 39.699219 C 71.820313 38.820313 72 37.9375 72 37 C 72 29.28125 65.71875 23 58 23 C 57.132813 23 56.3125 23.152344 55.5 23.308594 C 52.886719 17.277344 46.980469 13 40 13 Z M 40 15 C 46.433594 15 51.886719 19.046875 54.027344 24.722656 L 54.03125 24.746094 C 54.011719 24.828125 54 24.914063 54 25 C 54 25.550781 54.449219 26 55 26 C 55.476563 26 55.886719 25.664063 55.980469 25.199219 C 56.640625 25.082031 57.3125 25 58 25 C 64.640625 25 70 30.359375 70 37 C 70 38.050781 69.851563 39.070313 69.59375 40.058594 L 69.328125 41.046875 L 70.328125 41.28125 C 74.722656 42.332031 78 46.269531 78 51 C 78 56.535156 73.535156 61 68 61 L 14 61 C 7.359375 61 2 55.640625 2 49 C 2 42.359375 7.359375 37 14 37 C 13.96875 37 14.03125 37.011719 14.1875 37.011719 L 15.023438 37.011719 L 15.027344 37 C 15.566406 36.984375 16 36.542969 16 36 C 16 35.621094 15.785156 35.273438 15.441406 35.105469 C 16.625 31.199219 20.117188 28.304688 24.347656 28.03125 L 24.921875 28 C 24.949219 28 24.972656 28 25 28 C 25.550781 28 26 27.550781 26 27 C 26 26.648438 25.816406 26.324219 25.515625 26.144531 C 27.21875 19.730469 33.039063 15 40 15 Z M 29 26 C 28.449219 26 28 26.449219 28 27 C 28 27.550781 28.449219 28 29 28 C 29.550781 28 30 27.550781 30 27 C 30 26.449219 29.550781 26 29 26 Z M 33 28 C 32.449219 28 32 28.449219 32 29 C 32 29.550781 32.449219 30 33 30 C 33.550781 30 34 29.550781 34 29 C 34 28.449219 33.550781 28 33 28 Z M 56 28 C 55.449219 28 55 28.449219 55 29 C 55 29.550781 55.449219 30 56 30 C 56.550781 30 57 29.550781 57 29 C 57 28.449219 56.550781 28 56 28 Z M 36 31 C 35.449219 31 35 31.449219 35 32 C 35 32.550781 35.449219 33 36 33 C 36.550781 33 37 32.550781 37 32 C 37 31.449219 36.550781 31 36 31 Z M 56 32 C 55.449219 32 55 32.449219 55 33 C 55 33.550781 55.449219 34 56 34 C 56.550781 34 57 33.550781 57 33 C 57 32.449219 56.550781 32 56 32 Z M 19 35 C 18.449219 35 18 35.449219 18 36 C 18 36.550781 18.449219 37 19 37 C 19.550781 37 20 36.550781 20 36 C 20 35.449219 19.550781 35 19 35 Z M 23 37 C 22.449219 37 22 37.449219 22 38 C 22 38.550781 22.449219 39 23 39 C 23.550781 39 24 38.550781 24 38 C 24 37.449219 23.550781 37 23 37 Z M 26 40 C 25.449219 40 25 40.449219 25 41 C 25 41.550781 25.449219 42 26 42 C 26.550781 42 27 41.550781 27 41 C 27 40.449219 26.550781 40 26 40 Z M 69 43 C 68.449219 43 68 43.449219 68 44 C 68 44.550781 68.449219 45 69 45 C 69.550781 45 70 44.550781 70 44 C 70 43.449219 69.550781 43 69 43 Z M 67 46 C 66.449219 46 66 46.449219 66 47 C 66 47.550781 66.449219 48 67 48 C 67.550781 48 68 47.550781 68 47 C 68 46.449219 67.550781 46 67 46 Z"/></svg>