<svg fill="#212529" xmlns="http://www.w3.org/2000/svg"  viewBox="0 0 80 80" width="100px" height="100px"><path d="M 40 5.8242188 C 31.930187 5.8242186 25.21248 11.480753 23.482422 19.037109 C 18.594954 19.670648 14.693788 23.188644 13.488281 27.876953 C 6.0095082 28.153139 -1.1842379e-15 34.279082 0 41.824219 C 0 49.544609 6.27961 55.824219 14 55.824219 L 19 55.824219 A 1.0001 1.0001 0 1 0 19 53.824219 L 14 53.824219 C 7.36039 53.824219 2 48.463829 2 41.824219 C 2 35.184609 7.36039 29.824219 14 29.824219 C 13.97025 29.824219 14.0317 29.832031 14.189453 29.832031 L 15.023438 29.832031 L 15.025391 29.818359 C 15.564872 29.803975 16 29.367152 16 28.824219 C 16 28.432409 15.767855 28.101499 15.439453 27.9375 C 16.61777 24.026625 20.114804 21.130501 24.349609 20.857422 L 24.970703 20.818359 C 24.981027 20.818675 24.9896 20.824219 25 20.824219 C 25.020133 20.824219 25.036801 20.813675 25.056641 20.8125 L 25.125 20.808594 L 25.126953 20.798828 C 25.616186 20.733755 26 20.331152 26 19.824219 C 26 19.464328 25.799202 19.162469 25.513672 18.986328 C 27.209666 12.564599 33.034315 7.8242187 40 7.8242188 C 46.433135 7.8242188 51.888211 11.87218 54.025391 17.548828 L 54.044922 17.599609 C 54.027264 17.673966 54 17.744485 54 17.824219 C 54 18.376219 54.448 18.824219 55 18.824219 C 55.479867 18.824219 55.862305 18.478475 55.958984 18.027344 C 56.627275 17.908203 57.304494 17.824219 58 17.824219 C 64.63961 17.824219 70 23.184609 70 29.824219 C 70 30.875396 69.851543 31.89494 69.591797 32.880859 L 69.330078 33.869141 L 70.326172 34.107422 C 74.723841 35.157082 78 39.093764 78 43.824219 C 78 49.358752 73.534534 53.824219 68 53.824219 L 67 53.824219 A 1.0001 1.0001 0 1 0 67 55.824219 L 68 55.824219 C 74.615466 55.824219 80 50.439685 80 43.824219 C 80 38.496362 76.459385 34.083105 71.640625 32.523438 C 71.819165 31.644824 72 30.763337 72 29.824219 C 72 22.103829 65.72039 15.824219 58 15.824219 C 57.131846 15.824219 56.313684 15.977608 55.498047 16.130859 C 52.885208 10.101223 46.980544 5.8242188 40 5.8242188 z M 29 18.824219 C 28.448 18.824219 28 19.272219 28 19.824219 C 28 20.376219 28.448 20.824219 29 20.824219 C 29.552 20.824219 30 20.376219 30 19.824219 C 30 19.272219 29.552 18.824219 29 18.824219 z M 33 20.824219 C 32.448 20.824219 32 21.272219 32 21.824219 C 32 22.376219 32.448 22.824219 33 22.824219 C 33.552 22.824219 34 22.376219 34 21.824219 C 34 21.272219 33.552 20.824219 33 20.824219 z M 56 20.824219 C 55.448 20.824219 55 21.272219 55 21.824219 C 55 22.376219 55.448 22.824219 56 22.824219 C 56.552 22.824219 57 22.376219 57 21.824219 C 57 21.272219 56.552 20.824219 56 20.824219 z M 36 23.824219 C 35.448 23.824219 35 24.272219 35 24.824219 C 35 25.376219 35.448 25.824219 36 25.824219 C 36.552 25.824219 37 25.376219 37 24.824219 C 37 24.272219 36.552 23.824219 36 23.824219 z M 56 24.824219 C 55.448 24.824219 55 25.272219 55 25.824219 C 55 26.376219 55.448 26.824219 56 26.824219 C 56.552 26.824219 57 26.376219 57 25.824219 C 57 25.272219 56.552 24.824219 56 24.824219 z M 19 27.824219 C 18.448 27.824219 18 28.272219 18 28.824219 C 18 29.376219 18.448 29.824219 19 29.824219 C 19.552 29.824219 20 29.376219 20 28.824219 C 20 28.272219 19.552 27.824219 19 27.824219 z M 23 29.824219 C 22.448 29.824219 22 30.272219 22 30.824219 C 22 31.376219 22.448 31.824219 23 31.824219 C 23.552 31.824219 24 31.376219 24 30.824219 C 24 30.272219 23.552 29.824219 23 29.824219 z M 43 31 A 1 1 0 0 0 43 33 A 1 1 0 0 0 43 31 z M 26 32.824219 C 25.448 32.824219 25 33.272219 25 33.824219 C 25 34.376219 25.448 34.824219 26 34.824219 C 26.552 34.824219 27 34.376219 27 33.824219 C 27 33.272219 26.552 32.824219 26 32.824219 z M 42.984375 34.986328 A 1.0001 1.0001 0 0 0 42 36 L 42 38.585938 L 40.707031 37.292969 A 1.0001 1.0001 0 0 0 39.990234 36.990234 A 1.0001 1.0001 0 0 0 39.292969 38.707031 L 42 41.414062 L 42 49.150391 C 39.841745 47.738973 37.683721 46.327179 35.525391 44.916016 C 35.263978 43.667678 35.001944 42.419811 34.740234 41.169922 A 1.0001 1.0001 0 0 0 33.738281 40.361328 A 1.0001 1.0001 0 0 0 32.783203 41.580078 C 32.908127 42.176695 33.03346 42.772665 33.158203 43.369141 C 32.436226 42.897116 31.714179 42.425137 30.992188 41.953125 A 1.0005662 1.0005662 0 0 0 29.898438 43.628906 C 30.619726 44.100459 31.341224 44.571402 32.0625 45.042969 C 31.466036 45.167722 30.869971 45.292972 30.273438 45.417969 A 1.0001 1.0001 0 1 0 30.683594 47.375 C 31.93172 47.113471 33.180169 46.853305 34.429688 46.591797 C 36.677214 48.061279 38.924555 49.530613 41.171875 51 C 38.924564 52.469375 36.677094 53.938837 34.429688 55.408203 C 33.18025 55.146668 31.93172 54.886529 30.683594 54.625 A 1.0001 1.0001 0 0 0 30.484375 54.599609 A 1.0001 1.0001 0 0 0 30.273438 56.582031 C 30.869972 56.707028 31.466163 56.83231 32.0625 56.957031 C 31.341245 57.428578 30.619726 57.899541 29.898438 58.371094 A 1.0005662 1.0005662 0 0 0 30.992188 60.046875 C 31.714179 59.574863 32.436207 59.102878 33.158203 58.630859 C 33.033467 59.227179 32.908127 59.823305 32.783203 60.419922 A 1.0001 1.0001 0 1 0 34.740234 60.830078 C 35.001917 59.58032 35.262025 58.33211 35.523438 57.083984 C 37.682332 55.672553 39.841118 54.261071 42 52.849609 L 42 60.585938 L 39.292969 63.292969 A 1.0001 1.0001 0 1 0 40.707031 64.707031 L 42 63.414062 L 42 66 A 1.0001 1.0001 0 1 0 44 66 L 44 63.414062 L 45.292969 64.707031 A 1.0001 1.0001 0 1 0 46.707031 63.292969 L 44 60.585938 L 44 52.849609 C 46.157988 54.260581 48.316505 55.671052 50.474609 57.082031 C 50.736188 58.331678 50.997907 59.580382 51.259766 60.830078 A 1.0001 1.0001 0 1 0 53.216797 60.419922 C 53.091898 59.823851 52.967939 59.22724 52.84375 58.630859 C 53.564559 59.102114 54.285013 59.573659 55.005859 60.044922 A 1.0002831 1.0002831 0 1 0 56.101562 58.371094 C 55.380339 57.899584 54.658709 57.428586 53.9375 56.957031 C 54.534517 56.832149 55.131236 56.707093 55.728516 56.582031 A 1.0001 1.0001 0 0 0 55.486328 54.601562 A 1.0001 1.0001 0 0 0 55.318359 54.625 C 54.069808 54.886429 52.820767 55.146778 51.572266 55.408203 C 49.324954 53.938679 47.077343 52.469662 44.830078 51 C 47.077504 49.530631 49.324942 48.061146 51.572266 46.591797 C 52.820582 46.853204 54.069808 47.11357 55.318359 47.375 A 1.0001 1.0001 0 1 0 55.728516 45.417969 C 55.131236 45.292907 54.534338 45.167788 53.9375 45.042969 C 54.658711 44.571445 55.380339 44.100416 56.101562 43.628906 A 1.0002831 1.0002831 0 1 0 55.005859 41.955078 C 54.285013 42.426341 53.564581 42.897865 52.84375 43.369141 C 52.968469 42.772839 53.091898 42.176149 53.216797 41.580078 A 1.0001 1.0001 0 0 0 52.232422 40.361328 A 1.0001 1.0001 0 0 0 51.259766 41.169922 C 50.997907 42.419618 50.736171 43.668196 50.474609 44.917969 C 48.316084 46.32926 46.15832 47.741149 44 49.152344 L 44 41.414062 L 46.707031 38.707031 A 1.0001 1.0001 0 1 0 45.292969 37.292969 L 44 38.585938 L 44 36 A 1.0001 1.0001 0 0 0 42.984375 34.986328 z M 69 35.824219 C 68.448 35.824219 68 36.272219 68 36.824219 C 68 37.376219 68.448 37.824219 69 37.824219 C 69.552 37.824219 70 37.376219 70 36.824219 C 70 36.272219 69.552 35.824219 69 35.824219 z M 67 38.824219 C 66.448 38.824219 66 39.272219 66 39.824219 C 66 40.376219 66.448 40.824219 67 40.824219 C 67.552 40.824219 68 40.376219 68 39.824219 C 68 39.272219 67.552 38.824219 67 38.824219 z M 27.097656 39.601562 A 1 1 0 0 0 27.097656 41.601562 A 1 1 0 0 0 27.097656 39.601562 z M 58.902344 39.601562 A 1 1 0 0 0 58.902344 41.601562 A 1 1 0 0 0 58.902344 39.601562 z M 39 43 A 1 1 0 0 0 39 45 A 1 1 0 0 0 39 43 z M 47 43 A 1 1 0 0 0 47 45 A 1 1 0 0 0 47 43 z M 35 50 A 1 1 0 0 0 35 52 A 1 1 0 0 0 35 50 z M 51 50 A 1 1 0 0 0 51 52 A 1 1 0 0 0 51 50 z M 39 57 A 1 1 0 0 0 39 59 A 1 1 0 0 0 39 57 z M 47 57 A 1 1 0 0 0 47 59 A 1 1 0 0 0 47 57 z M 70.990234 59.986328 A 1.0001 1.0001 0 0 0 70.292969 60.292969 L 69 61.585938 L 67.707031 60.292969 A 1.0001 1.0001 0 0 0 66.990234 59.990234 A 1.0001 1.0001 0 0 0 66.292969 61.707031 L 67.585938 63 L 66.292969 64.292969 A 1.0001 1.0001 0 1 0 67.707031 65.707031 L 69 64.414062 L 70.292969 65.707031 A 1.0001 1.0001 0 1 0 71.707031 64.292969 L 70.414062 63 L 71.707031 61.707031 A 1.0001 1.0001 0 0 0 70.990234 59.986328 z M 27.097656 60.398438 A 1 1 0 0 0 27.097656 62.398438 A 1 1 0 0 0 27.097656 60.398438 z M 58.902344 60.398438 A 1 1 0 0 0 58.902344 62.398438 A 1 1 0 0 0 58.902344 60.398438 z M 17.990234 61.986328 A 1.0001 1.0001 0 0 0 17.292969 62.292969 L 16 63.585938 L 14.707031 62.292969 A 1.0001 1.0001 0 0 0 13.990234 61.990234 A 1.0001 1.0001 0 0 0 13.292969 63.707031 L 14.585938 65 L 13.292969 66.292969 A 1.0001 1.0001 0 1 0 14.707031 67.707031 L 16 66.414062 L 17.292969 67.707031 A 1.0001 1.0001 0 1 0 18.707031 66.292969 L 17.414062 65 L 18.707031 63.707031 A 1.0001 1.0001 0 0 0 17.990234 61.986328 z M 27.990234 68.986328 A 1.0001 1.0001 0 0 0 27.292969 69.292969 L 26 70.585938 L 24.707031 69.292969 A 1.0001 1.0001 0 0 0 23.990234 68.990234 A 1.0001 1.0001 0 0 0 23.292969 70.707031 L 24.585938 72 L 23.292969 73.292969 A 1.0001 1.0001 0 1 0 24.707031 74.707031 L 26 73.414062 L 27.292969 74.707031 A 1.0001 1.0001 0 1 0 28.707031 73.292969 L 27.414062 72 L 28.707031 70.707031 A 1.0001 1.0001 0 0 0 27.990234 68.986328 z M 60.990234 68.986328 A 1.0001 1.0001 0 0 0 60.292969 69.292969 L 59 70.585938 L 57.707031 69.292969 A 1.0001 1.0001 0 0 0 56.990234 68.990234 A 1.0001 1.0001 0 0 0 56.292969 70.707031 L 57.585938 72 L 56.292969 73.292969 A 1.0001 1.0001 0 1 0 57.707031 74.707031 L 59 73.414062 L 60.292969 74.707031 A 1.0001 1.0001 0 1 0 61.707031 73.292969 L 60.414062 72 L 61.707031 70.707031 A 1.0001 1.0001 0 0 0 60.990234 68.986328 z M 43 69 A 1 1 0 0 0 43 71 A 1 1 0 0 0 43 69 z"/></svg>