<?xml version="1.0"?><svg fill="#212529" xmlns="http://www.w3.org/2000/svg"  viewBox="0 0 80 80" width="100px" height="100px">    <path d="M 40 6 C 31.930187 6 25.21248 11.656534 23.482422 19.212891 C 18.594954 19.846429 14.693788 23.364425 13.488281 28.052734 C 6.0095083 28.328921 0 34.454863 0 42 C 0 49.72039 6.27961 56 14 56 L 19 56 A 1.0001 1.0001 0 1 0 19 54 L 14 54 C 7.36039 54 2 48.63961 2 42 C 2 35.36039 7.36039 30 14 30 C 13.97025 30 14.0317 30.009766 14.189453 30.009766 L 15.023438 30.009766 L 15.025391 29.998047 A 1 1 0 0 0 16 29 A 1 1 0 0 0 15.443359 28.105469 C 16.624127 24.198793 20.117796 21.306089 24.349609 21.033203 L 24.921875 20.998047 A 1 1 0 0 0 25 21 A 1 1 0 0 0 26 20 A 1 1 0 0 0 25.517578 19.144531 C 27.219484 12.73162 33.040588 8 40 8 C 46.433135 8 51.888211 12.047962 54.025391 17.724609 L 54.033203 17.746094 A 1 1 0 0 0 54 18 A 1 1 0 0 0 55 19 A 1 1 0 0 0 55.980469 18.199219 C 56.641881 18.082497 57.311956 18 58 18 C 64.63961 18 70 23.36039 70 30 C 70 31.051177 69.851543 32.070721 69.591797 33.056641 L 69.330078 34.046875 L 70.326172 34.283203 C 74.723841 35.332864 78 39.269546 78 44 C 78 49.534534 73.534534 54 68 54 L 65 54 A 1.0001 1.0001 0 1 0 65 56 L 68 56 C 74.615466 56 80 50.615466 80 44 C 80 38.672143 76.459385 34.258886 71.640625 32.699219 C 71.819165 31.820605 72 30.939119 72 30 C 72 22.27961 65.72039 16 58 16 C 57.131846 16 56.313684 16.153389 55.498047 16.306641 C 52.885208 10.277004 46.980544 6 40 6 z M 29 19 A 1 1 0 0 0 28 20 A 1 1 0 0 0 29 21 A 1 1 0 0 0 30 20 A 1 1 0 0 0 29 19 z M 33 21 A 1 1 0 0 0 32 22 A 1 1 0 0 0 33 23 A 1 1 0 0 0 34 22 A 1 1 0 0 0 33 21 z M 56 21 A 1 1 0 0 0 55 22 A 1 1 0 0 0 56 23 A 1 1 0 0 0 57 22 A 1 1 0 0 0 56 21 z M 36 24 A 1 1 0 0 0 35 25 A 1 1 0 0 0 36 26 A 1 1 0 0 0 37 25 A 1 1 0 0 0 36 24 z M 56 25 A 1 1 0 0 0 55 26 A 1 1 0 0 0 56 27 A 1 1 0 0 0 57 26 A 1 1 0 0 0 56 25 z M 19 28 A 1 1 0 0 0 18 29 A 1 1 0 0 0 19 30 A 1 1 0 0 0 20 29 A 1 1 0 0 0 19 28 z M 23 30 A 1 1 0 0 0 22 31 A 1 1 0 0 0 23 32 A 1 1 0 0 0 24 31 A 1 1 0 0 0 23 30 z M 26 33 A 1 1 0 0 0 25 34 A 1 1 0 0 0 26 35 A 1 1 0 0 0 27 34 A 1 1 0 0 0 26 33 z M 69 36 A 1 1 0 0 0 68 37 A 1 1 0 0 0 69 38 A 1 1 0 0 0 70 37 A 1 1 0 0 0 69 36 z M 40.140625 38 L 39.884766 38.613281 L 30.496094 61 L 40 61 L 40 74 L 41.943359 74 L 50.486328 53 L 42 53 L 42 38 L 40.140625 38 z M 67 39 A 1 1 0 0 0 66 40 A 1 1 0 0 0 67 41 A 1 1 0 0 0 68 40 A 1 1 0 0 0 67 39 z M 40 43.507812 L 40 55 L 47.513672 55 L 42 68.552734 L 42 59 L 33.503906 59 L 40 43.507812 z M 26.048828 52.988281 A 1.0001 1.0001 0 0 0 25.164062 53.650391 L 21.052734 64.650391 A 1.0001 1.0001 0 1 0 22.925781 65.349609 L 27.037109 54.349609 A 1.0001 1.0001 0 0 0 26.048828 52.988281 z M 58.947266 52.988281 A 1.0001 1.0001 0 0 0 58.0625 53.650391 L 53.953125 64.650391 A 1.0001 1.0001 0 1 0 55.826172 65.349609 L 59.9375 54.349609 A 1.0001 1.0001 0 0 0 58.947266 52.988281 z M 20.443359 67.988281 A 1.0001 1.0001 0 0 0 19.558594 68.650391 L 18.0625 72.650391 A 1.0005662 1.0005662 0 1 0 19.9375 73.349609 L 21.431641 69.349609 A 1.0001 1.0001 0 0 0 20.443359 67.988281 z M 53.341797 67.988281 A 1.0001 1.0001 0 0 0 52.457031 68.650391 L 50.962891 72.650391 A 1.0001 1.0001 0 1 0 52.835938 73.349609 L 54.330078 69.349609 A 1.0001 1.0001 0 0 0 53.341797 67.988281 z"/></svg>