<svg fill="#212529" xmlns="http://www.w3.org/2000/svg"  viewBox="0 0 80 80" width="50px" height="50px"><path d="M 29.148438 11.052734 L 28.347656 11.453125 L 28.189453 12.335938 L 28.800781 12.990234 L 29.148438 13.052734 L 29.949219 12.650391 L 30.107422 11.767578 L 29.496094 11.113281 L 29.148438 11.052734 z M 25.203125 11.494141 L 24.402344 11.896484 L 24.244141 12.779297 L 24.855469 13.433594 L 25.203125 13.494141 L 26.003906 13.09375 L 26.162109 12.210938 L 25.550781 11.556641 L 25.203125 11.494141 z M 32.951172 12.191406 L 32.150391 12.591797 L 31.992188 13.474609 L 32.603516 14.128906 L 32.951172 14.191406 L 33.751953 13.789062 L 33.910156 12.90625 L 33.296875 12.251953 L 32.951172 12.191406 z M 21.748047 13.447266 L 20.947266 13.849609 L 20.789062 14.732422 L 21.402344 15.386719 L 21.748047 15.447266 L 22.548828 15.046875 L 22.707031 14.164062 L 22.095703 13.509766 L 21.748047 13.447266 z M 36.011719 14.724609 A 1.0001 1.0001 0 0 0 35.212891 16.351562 C 35.681142 16.949884 36.395442 18.025342 36.763672 19.53125 C 36.76459 19.53525 37.024337 20.667627 36.996094 21.724609 C 36.873557 26.363251 32.660393 30 27.798828 30 L 23 30 A 1.0001 1.0001 0 1 0 23 32 L 27.798828 32 C 33.661263 32 38.842631 27.586703 38.996094 21.777344 C 39.033804 20.366187 38.707031 19.058594 38.707031 19.058594 L 38.707031 19.056641 L 38.707031 19.054688 C 38.249261 17.182595 37.362858 15.85482 36.787109 15.119141 A 1.0001 1.0001 0 0 0 36.011719 14.724609 z M 61.017578 16.904297 L 60.216797 17.306641 L 60.058594 18.1875 L 60.671875 18.841797 L 61.017578 18.904297 L 61.818359 18.503906 L 61.976562 17.621094 L 61.365234 16.966797 L 61.017578 16.904297 z M 64.951172 17.519531 L 64.150391 17.921875 L 63.992188 18.804688 L 64.603516 19.458984 L 64.951172 19.519531 L 65.751953 19.119141 L 65.910156 18.236328 L 65.298828 17.582031 L 64.951172 17.519531 z M 57.099609 17.601562 L 56.296875 18.003906 L 56.140625 18.886719 L 56.751953 19.541016 L 57.099609 19.601562 L 57.900391 19.201172 L 58.058594 18.318359 L 57.445312 17.664062 L 57.099609 17.601562 z M 68.462891 19.392578 L 67.662109 19.794922 L 67.503906 20.675781 L 68.115234 21.330078 L 68.462891 21.392578 L 69.263672 20.992188 L 69.421875 20.109375 L 68.810547 19.455078 L 68.462891 19.392578 z M 53.636719 19.5625 L 52.835938 19.964844 L 52.677734 20.845703 L 53.289062 21.501953 L 53.636719 21.5625 L 54.4375 21.162109 L 54.595703 20.279297 L 53.982422 19.625 L 53.636719 19.5625 z M 71.154297 22.326172 L 70.351562 22.726562 L 70.195312 23.609375 L 70.806641 24.263672 L 71.154297 24.326172 L 71.955078 23.923828 L 72.113281 23.042969 L 71.5 22.388672 L 71.154297 22.326172 z M 51.011719 22.556641 L 50.210938 22.957031 L 50.052734 23.839844 L 50.666016 24.494141 L 51.011719 24.556641 L 51.814453 24.154297 L 51.970703 23.271484 L 51.359375 22.617188 L 51.011719 22.556641 z M 72.648438 25.986328 A 1.0001 1.0001 0 0 0 71.707031 27.214844 C 71.910252 28.136174 71.990972 29.103624 71.929688 30.101562 C 71.584421 35.711231 66.512389 40 60.6875 40 L 31 40 A 1.0001 1.0001 0 1 0 31 42 L 60.6875 42 C 67.496611 42 73.511048 36.962941 73.925781 30.224609 C 73.998501 29.040548 73.902931 27.885826 73.660156 26.785156 A 1.0001 1.0001 0 0 0 72.648438 25.986328 z M 11 30 L 10.199219 30.402344 L 10.041016 31.283203 L 10.652344 31.9375 L 11 32 L 11.800781 31.597656 L 11.958984 30.716797 L 11.347656 30.0625 L 11 30 z M 15 30 L 14.199219 30.402344 L 14.041016 31.283203 L 14.652344 31.9375 L 15 32 L 15.800781 31.597656 L 15.958984 30.716797 L 15.347656 30.0625 L 15 30 z M 19 30 L 18.199219 30.402344 L 18.041016 31.283203 L 18.652344 31.9375 L 19 32 L 19.800781 31.597656 L 19.958984 30.716797 L 19.347656 30.0625 L 19 30 z M 11 40 L 10.199219 40.402344 L 10.041016 41.283203 L 10.652344 41.9375 L 11 42 L 11.800781 41.597656 L 11.958984 40.716797 L 11.347656 40.0625 L 11 40 z M 15 40 L 14.199219 40.402344 L 14.041016 41.283203 L 14.652344 41.9375 L 15 42 L 15.800781 41.597656 L 15.958984 40.716797 L 15.347656 40.0625 L 15 40 z M 19 40 L 18.199219 40.402344 L 18.041016 41.283203 L 18.652344 41.9375 L 19 42 L 19.800781 41.597656 L 19.958984 40.716797 L 19.347656 40.0625 L 19 40 z M 23 40 L 22.199219 40.402344 L 22.041016 41.283203 L 22.652344 41.9375 L 23 42 L 23.800781 41.597656 L 23.958984 40.716797 L 23.347656 40.0625 L 23 40 z M 27 40 L 26.199219 40.402344 L 26.041016 41.283203 L 26.652344 41.9375 L 27 42 L 27.800781 41.597656 L 27.958984 40.716797 L 27.347656 40.0625 L 27 40 z M 11 50.824219 L 10.199219 51.226562 L 10.041016 52.109375 L 10.652344 52.763672 L 11 52.824219 L 11.800781 52.423828 L 11.958984 51.541016 L 11.347656 50.886719 L 11 50.824219 z M 15 50.824219 L 14.199219 51.226562 L 14.041016 52.109375 L 14.652344 52.763672 L 15 52.824219 L 15.800781 52.423828 L 15.958984 51.541016 L 15.347656 50.886719 L 15 50.824219 z M 19 50.824219 L 18.199219 51.226562 L 18.041016 52.109375 L 18.652344 52.763672 L 19 52.824219 L 19.800781 52.423828 L 19.958984 51.541016 L 19.347656 50.886719 L 19 50.824219 z M 22.990234 51 A 1.0001 1.0001 0 1 0 23.009766 53 C 29.335278 52.9422 35.638098 53.05796 42 53 C 46.739998 53 50.877693 56.485501 50.998047 61.185547 A 1.0001 1.0001 0 1 0 52.996094 61.132812 C 52.84645 55.288853 47.730002 51 42 51 L 41.996094 51 L 41.990234 51 C 35.661469 51.05783 29.355469 50.94183 22.990234 51 z M 51.279297 64.066406 L 50.478516 64.466797 L 50.320312 65.349609 L 50.933594 66.003906 L 51.279297 66.066406 L 52.080078 65.664062 L 52.238281 64.783203 L 51.626953 64.126953 L 51.279297 64.066406 z M 34.939453 66.220703 L 34.136719 66.623047 L 33.980469 67.505859 L 34.591797 68.160156 L 34.939453 68.220703 L 35.740234 67.820312 L 35.898438 66.9375 L 35.285156 66.283203 L 34.939453 66.220703 z M 49.041016 67.34375 L 48.240234 67.746094 L 48.082031 68.628906 L 48.695312 69.283203 L 49.041016 69.34375 L 49.84375 68.943359 L 50 68.060547 L 49.388672 67.40625 L 49.041016 67.34375 z M 37.935547 68.824219 L 37.134766 69.224609 L 36.976562 70.107422 L 37.587891 70.761719 L 37.935547 70.824219 L 38.736328 70.421875 L 38.894531 69.541016 L 38.28125 68.886719 L 37.935547 68.824219 z M 45.669922 69.4375 L 44.869141 69.837891 L 44.710938 70.720703 L 45.324219 71.375 L 45.669922 71.4375 L 46.472656 71.035156 L 46.628906 70.154297 L 46.017578 69.5 L 45.669922 69.4375 z M 41.738281 69.951172 L 40.9375 70.351562 L 40.779297 71.234375 L 41.390625 71.888672 L 41.738281 71.951172 L 42.539062 71.548828 L 42.697266 70.667969 L 42.085938 70.013672 L 41.738281 69.951172 z"/></svg>