<svg fill="#212529" xmlns="http://www.w3.org/2000/svg"  viewBox="0 0 80 80" width="100px" height="100px"><path d="M 39.984375 2.984375 C 39.433594 2.996094 38.992188 3.449219 39 4 L 39 9.023438 C 36.925781 9.089844 34.902344 9.359375 32.949219 9.816406 L 32.167969 6.898438 C 32.054688 6.464844 31.667969 6.15625 31.21875 6.144531 C 30.902344 6.136719 30.597656 6.28125 30.40625 6.53125 C 30.210938 6.785156 30.148438 7.113281 30.234375 7.417969 L 31.015625 10.339844 C 29.046875 10.9375 27.164063 11.722656 25.378906 12.679688 L 22.863281 8.320313 C 22.683594 7.996094 22.332031 7.796875 21.953125 7.8125 C 21.601563 7.824219 21.28125 8.023438 21.113281 8.332031 C 20.945313 8.644531 20.953125 9.019531 21.136719 9.320313 L 23.648438 13.675781 C 21.914063 14.757813 20.289063 16 18.808594 17.390625 L 16.667969 15.25 C 16.476563 15.054688 16.21875 14.945313 15.949219 14.949219 C 15.539063 14.945313 15.171875 15.195313 15.019531 15.570313 C 14.867188 15.949219 14.957031 16.382813 15.25 16.667969 L 17.394531 18.8125 C 16.003906 20.292969 14.757813 21.914063 13.675781 23.648438 L 9.320313 21.136719 C 9.179688 21.046875 9.015625 21 8.847656 20.992188 C 8.8125 20.992188 8.78125 20.992188 8.75 20.996094 C 8.304688 21.023438 7.933594 21.335938 7.835938 21.769531 C 7.738281 22.203125 7.933594 22.648438 8.320313 22.863281 L 12.671875 25.375 C 11.710938 27.15625 10.921875 29.042969 10.328125 31.015625 L 7.417969 30.234375 C 7.320313 30.207031 7.222656 30.195313 7.121094 30.199219 C 6.621094 30.210938 6.210938 30.589844 6.152344 31.085938 C 6.097656 31.582031 6.417969 32.042969 6.898438 32.167969 L 9.816406 32.949219 C 9.359375 34.902344 9.089844 36.925781 9.023438 39 L 4 39 C 3.640625 38.996094 3.304688 39.183594 3.121094 39.496094 C 2.941406 39.808594 2.941406 40.191406 3.121094 40.503906 C 3.304688 40.816406 3.640625 41.003906 4 41 L 9.023438 41 C 9.089844 43.074219 9.359375 45.097656 9.816406 47.050781 L 6.898438 47.832031 C 6.546875 47.921875 6.269531 48.191406 6.175781 48.539063 C 6.078125 48.890625 6.179688 49.261719 6.4375 49.515625 C 6.695313 49.769531 7.070313 49.867188 7.417969 49.765625 L 10.328125 48.984375 C 10.921875 50.957031 11.710938 52.84375 12.671875 54.625 L 8.320313 57.136719 C 7.996094 57.304688 7.792969 57.640625 7.789063 58.007813 C 7.785156 58.375 7.980469 58.714844 8.300781 58.894531 C 8.621094 59.070313 9.011719 59.0625 9.320313 58.863281 L 13.675781 56.351563 C 14.757813 58.085938 16.003906 59.707031 17.394531 61.1875 L 15.25 63.332031 C 14.859375 63.726563 14.859375 64.359375 15.25 64.75 C 15.640625 65.140625 16.273438 65.140625 16.667969 64.75 L 18.808594 62.609375 C 20.289063 64 21.914063 65.242188 23.648438 66.324219 L 21.136719 70.675781 C 20.9375 70.988281 20.929688 71.378906 21.105469 71.699219 C 21.285156 72.019531 21.625 72.214844 21.992188 72.210938 C 22.359375 72.207031 22.695313 72.003906 22.863281 71.675781 L 25.378906 67.320313 C 27.164063 68.277344 29.046875 69.0625 31.015625 69.660156 L 30.234375 72.582031 C 30.132813 72.929688 30.230469 73.304688 30.484375 73.5625 C 30.738281 73.820313 31.109375 73.921875 31.460938 73.824219 C 31.808594 73.730469 32.078125 73.453125 32.167969 73.097656 L 32.949219 70.183594 C 34.902344 70.640625 36.925781 70.910156 39 70.972656 L 39 76 C 38.996094 76.359375 39.183594 76.695313 39.496094 76.878906 C 39.808594 77.058594 40.191406 77.058594 40.503906 76.878906 C 40.816406 76.695313 41.003906 76.359375 41 76 L 41 70.972656 C 43.074219 70.910156 45.097656 70.640625 47.050781 70.183594 L 47.832031 73.097656 C 47.921875 73.453125 48.191406 73.730469 48.539063 73.824219 C 48.890625 73.921875 49.261719 73.820313 49.515625 73.5625 C 49.769531 73.304688 49.867188 72.929688 49.765625 72.582031 L 48.984375 69.660156 C 50.953125 69.0625 52.835938 68.277344 54.621094 67.320313 L 57.136719 71.675781 C 57.304688 72.003906 57.640625 72.207031 58.007813 72.210938 C 58.375 72.214844 58.714844 72.019531 58.894531 71.699219 C 59.070313 71.378906 59.0625 70.988281 58.863281 70.675781 L 56.351563 66.324219 C 58.085938 65.242188 59.710938 64 61.191406 62.609375 L 63.332031 64.75 C 63.726563 65.140625 64.359375 65.140625 64.75 64.75 C 65.140625 64.359375 65.140625 63.726563 64.75 63.332031 L 62.605469 61.1875 C 63.996094 59.707031 65.242188 58.085938 66.324219 56.351563 L 70.675781 58.863281 C 70.988281 59.0625 71.378906 59.070313 71.699219 58.894531 C 72.019531 58.714844 72.214844 58.375 72.210938 58.007813 C 72.207031 57.640625 72.003906 57.304688 71.675781 57.136719 L 67.328125 54.625 C 68.289063 52.84375 69.078125 50.957031 69.671875 48.984375 L 72.582031 49.765625 C 72.929688 49.867188 73.304688 49.769531 73.5625 49.515625 C 73.820313 49.261719 73.921875 48.890625 73.824219 48.539063 C 73.730469 48.191406 73.453125 47.921875 73.097656 47.832031 L 70.183594 47.050781 C 70.640625 45.097656 70.910156 43.074219 70.972656 41 L 76 41 C 76.359375 41.003906 76.695313 40.816406 76.878906 40.503906 C 77.058594 40.191406 77.058594 39.808594 76.878906 39.496094 C 76.695313 39.183594 76.359375 38.996094 76 39 L 70.972656 39 C 70.910156 36.925781 70.640625 34.902344 70.183594 32.949219 L 73.097656 32.167969 C 73.59375 32.042969 73.914063 31.570313 73.851563 31.070313 C 73.785156 30.566406 73.355469 30.191406 72.847656 30.195313 C 72.757813 30.195313 72.667969 30.210938 72.582031 30.234375 L 69.671875 31.015625 C 69.078125 29.042969 68.289063 27.15625 67.328125 25.375 L 71.675781 22.863281 C 72.070313 22.644531 72.265625 22.191406 72.160156 21.757813 C 72.050781 21.320313 71.667969 21.007813 71.21875 20.996094 C 71.03125 20.988281 70.839844 21.035156 70.675781 21.136719 L 66.324219 23.648438 C 65.242188 21.914063 63.996094 20.292969 62.605469 18.8125 L 64.75 16.667969 C 65.046875 16.378906 65.136719 15.9375 64.972656 15.558594 C 64.8125 15.179688 64.433594 14.9375 64.019531 14.949219 C 63.761719 14.957031 63.515625 15.0625 63.332031 15.25 L 61.191406 17.390625 C 59.710938 16 58.085938 14.757813 56.351563 13.675781 L 58.863281 9.320313 C 59.046875 9.015625 59.054688 8.632813 58.878906 8.320313 C 58.703125 8.007813 58.375 7.8125 58.015625 7.8125 C 57.652344 7.808594 57.3125 8.003906 57.136719 8.320313 L 54.621094 12.679688 C 52.835938 11.722656 50.953125 10.9375 48.984375 10.339844 L 49.765625 7.417969 C 49.855469 7.105469 49.785156 6.773438 49.585938 6.519531 C 49.382813 6.269531 49.074219 6.128906 48.75 6.148438 C 48.3125 6.171875 47.941406 6.476563 47.832031 6.898438 L 47.050781 9.816406 C 45.097656 9.359375 43.074219 9.089844 41 9.023438 L 41 4 C 41.003906 3.730469 40.898438 3.46875 40.707031 3.277344 C 40.515625 3.085938 40.253906 2.980469 39.984375 2.984375 Z M 40 11 C 56.027344 11 69 23.972656 69 40 C 69 56.027344 56.027344 69 40 69 C 23.972656 69 11 56.027344 11 40 C 11 23.972656 23.972656 11 40 11 Z M 40 14 C 39.449219 14 39 14.449219 39 15 C 39 15.550781 39.449219 16 40 16 C 40.550781 16 41 15.550781 41 15 C 41 14.449219 40.550781 14 40 14 Z M 33.539063 14.851563 C 33.515625 14.851563 33.492188 14.851563 33.46875 14.855469 C 33.402344 14.859375 33.335938 14.867188 33.269531 14.886719 C 32.738281 15.03125 32.421875 15.578125 32.5625 16.109375 C 32.707031 16.644531 33.253906 16.960938 33.789063 16.816406 C 34.324219 16.675781 34.640625 16.128906 34.496094 15.59375 C 34.378906 15.160156 33.988281 14.855469 33.539063 14.851563 Z M 46.460938 14.855469 C 46.011719 14.855469 45.621094 15.160156 45.503906 15.59375 C 45.433594 15.851563 45.472656 16.125 45.605469 16.351563 C 45.738281 16.582031 45.957031 16.75 46.214844 16.816406 C 46.746094 16.960938 47.292969 16.644531 47.4375 16.109375 C 47.582031 15.578125 47.265625 15.03125 46.730469 14.886719 C 46.640625 14.863281 46.550781 14.851563 46.460938 14.855469 Z M 27.476563 17.347656 C 27.308594 17.351563 27.144531 17.398438 27 17.484375 C 26.769531 17.613281 26.601563 17.832031 26.53125 18.089844 C 26.464844 18.347656 26.5 18.621094 26.632813 18.847656 C 26.765625 19.078125 26.984375 19.246094 27.242188 19.316406 C 27.496094 19.382813 27.769531 19.347656 28 19.214844 C 28.476563 18.9375 28.640625 18.328125 28.363281 17.847656 C 28.183594 17.53125 27.84375 17.339844 27.476563 17.347656 Z M 52.453125 17.351563 C 52.113281 17.367188 51.804688 17.554688 51.632813 17.847656 C 51.355469 18.328125 51.523438 18.9375 52 19.214844 C 52.476563 19.492188 53.089844 19.328125 53.363281 18.847656 C 53.640625 18.371094 53.476563 17.761719 53 17.484375 C 52.832031 17.386719 52.644531 17.34375 52.453125 17.351563 Z M 22.335938 21.324219 C 22.066406 21.316406 21.804688 21.421875 21.613281 21.613281 C 21.222656 22.003906 21.222656 22.640625 21.613281 23.03125 C 21.800781 23.21875 22.054688 23.324219 22.320313 23.324219 C 22.585938 23.324219 22.839844 23.21875 23.03125 23.03125 C 23.417969 22.640625 23.417969 22.003906 23.03125 21.613281 C 22.84375 21.429688 22.597656 21.324219 22.335938 21.324219 Z M 57.691406 21.324219 C 57.421875 21.320313 57.160156 21.425781 56.96875 21.613281 C 56.582031 22.003906 56.582031 22.640625 56.96875 23.03125 C 57.359375 23.417969 57.996094 23.417969 58.386719 23.03125 C 58.773438 22.640625 58.773438 22.003906 58.386719 21.613281 C 58.199219 21.429688 57.953125 21.324219 57.691406 21.324219 Z M 61.625 26.5 C 61.457031 26.503906 61.292969 26.550781 61.148438 26.632813 C 60.917969 26.765625 60.75 26.984375 60.683594 27.242188 C 60.613281 27.496094 60.648438 27.769531 60.78125 28 C 61.058594 28.476563 61.671875 28.640625 62.148438 28.363281 C 62.625 28.089844 62.792969 27.476563 62.515625 27 C 62.332031 26.683594 61.992188 26.492188 61.625 26.5 Z M 18.300781 26.5 C 17.964844 26.519531 17.65625 26.707031 17.484375 27 C 17.351563 27.230469 17.316406 27.503906 17.382813 27.757813 C 17.453125 28.015625 17.621094 28.234375 17.847656 28.367188 C 18.328125 28.644531 18.9375 28.476563 19.214844 28 C 19.492188 27.523438 19.328125 26.910156 18.847656 26.636719 C 18.683594 26.539063 18.492188 26.492188 18.300781 26.5 Z M 15.84375 32.53125 C 15.394531 32.535156 15.003906 32.835938 14.886719 33.269531 C 14.742188 33.804688 15.058594 34.351563 15.59375 34.496094 C 16.128906 34.640625 16.675781 34.324219 16.816406 33.789063 C 16.960938 33.253906 16.644531 32.707031 16.109375 32.5625 C 16.023438 32.539063 15.933594 32.527344 15.84375 32.53125 Z M 64.1875 32.53125 C 64.085938 32.527344 63.984375 32.539063 63.890625 32.566406 C 63.355469 32.710938 63.039063 33.257813 63.183594 33.792969 C 63.324219 34.324219 63.871094 34.640625 64.40625 34.5 C 64.941406 34.355469 65.257813 33.808594 65.113281 33.273438 C 65 32.847656 64.625 32.546875 64.1875 32.53125 Z M 15 39 C 14.449219 39 14 39.449219 14 40 C 14 40.550781 14.449219 41 15 41 C 15.550781 41 16 40.550781 16 40 C 16 39.449219 15.550781 39 15 39 Z M 65 39 C 64.449219 39 64 39.449219 64 40 C 64 40.550781 64.449219 41 65 41 C 65.550781 41 66 40.550781 66 40 C 66 39.449219 65.550781 39 65 39 Z M 15.890625 45.46875 C 15.789063 45.46875 15.6875 45.476563 15.59375 45.503906 C 15.058594 45.648438 14.742188 46.195313 14.886719 46.730469 C 15.027344 47.261719 15.574219 47.578125 16.109375 47.4375 C 16.644531 47.292969 16.960938 46.746094 16.816406 46.210938 C 16.703125 45.789063 16.328125 45.488281 15.890625 45.46875 Z M 64.140625 45.472656 C 63.6875 45.476563 63.296875 45.78125 63.183594 46.214844 C 63.039063 46.75 63.355469 47.296875 63.890625 47.4375 C 64.421875 47.582031 64.96875 47.265625 65.113281 46.734375 C 65.257813 46.199219 64.941406 45.652344 64.40625 45.507813 C 64.320313 45.484375 64.230469 45.472656 64.140625 45.472656 Z M 18.324219 51.5 C 18.15625 51.503906 17.996094 51.550781 17.847656 51.632813 C 17.371094 51.910156 17.207031 52.519531 17.484375 53 C 17.613281 53.226563 17.832031 53.394531 18.089844 53.464844 C 18.347656 53.535156 18.621094 53.5 18.847656 53.363281 C 19.078125 53.234375 19.246094 53.015625 19.316406 52.757813 C 19.382813 52.5 19.347656 52.226563 19.214844 52 C 19.03125 51.683594 18.691406 51.492188 18.324219 51.5 Z M 61.601563 51.5 C 61.261719 51.519531 60.953125 51.707031 60.78125 52 C 60.507813 52.480469 60.671875 53.089844 61.148438 53.367188 C 61.378906 53.5 61.652344 53.535156 61.90625 53.46875 C 62.164063 53.398438 62.382813 53.230469 62.515625 53 C 62.648438 52.773438 62.683594 52.5 62.617188 52.242188 C 62.546875 51.984375 62.378906 51.765625 62.148438 51.636719 C 61.984375 51.539063 61.792969 51.492188 61.601563 51.5 Z M 22.335938 56.675781 C 22.066406 56.675781 21.804688 56.78125 21.613281 56.96875 C 21.226563 57.359375 21.226563 57.996094 21.613281 58.386719 C 22.003906 58.773438 22.640625 58.773438 23.03125 58.386719 C 23.417969 57.996094 23.417969 57.359375 23.03125 56.96875 C 22.84375 56.785156 22.597656 56.679688 22.335938 56.675781 Z M 57.691406 56.675781 C 57.421875 56.675781 57.160156 56.78125 56.96875 56.96875 C 56.582031 57.359375 56.582031 57.996094 56.96875 58.386719 C 57.359375 58.773438 57.996094 58.773438 58.386719 58.386719 C 58.773438 57.996094 58.773438 57.359375 58.386719 56.96875 C 58.199219 56.785156 57.953125 56.679688 57.691406 56.675781 Z M 52.472656 60.648438 C 52.308594 60.652344 52.144531 60.699219 52 60.78125 C 51.519531 61.058594 51.355469 61.671875 51.632813 62.148438 C 51.910156 62.625 52.519531 62.792969 53 62.515625 C 53.226563 62.382813 53.394531 62.164063 53.464844 61.90625 C 53.535156 61.652344 53.5 61.378906 53.363281 61.148438 C 53.183594 60.832031 52.839844 60.640625 52.472656 60.648438 Z M 27.453125 60.652344 C 27.109375 60.667969 26.800781 60.855469 26.632813 61.152344 C 26.355469 61.628906 26.523438 62.242188 27 62.515625 C 27.476563 62.792969 28.089844 62.628906 28.363281 62.152344 C 28.5 61.921875 28.535156 61.648438 28.464844 61.394531 C 28.398438 61.136719 28.230469 60.917969 28 60.785156 C 27.832031 60.6875 27.644531 60.644531 27.453125 60.652344 Z M 46.480469 63.148438 C 46.453125 63.148438 46.429688 63.148438 46.40625 63.152344 C 46.339844 63.15625 46.273438 63.167969 46.210938 63.183594 C 45.953125 63.25 45.734375 63.417969 45.601563 63.648438 C 45.46875 63.878906 45.433594 64.152344 45.5 64.40625 C 45.570313 64.664063 45.738281 64.882813 45.96875 65.015625 C 46.199219 65.148438 46.472656 65.183594 46.730469 65.113281 C 47.261719 64.972656 47.578125 64.425781 47.4375 63.890625 C 47.320313 63.457031 46.929688 63.152344 46.480469 63.148438 Z M 33.519531 63.152344 C 33.070313 63.152344 32.679688 63.457031 32.5625 63.890625 C 32.417969 64.425781 32.734375 64.972656 33.269531 65.113281 C 33.804688 65.257813 34.351563 64.941406 34.496094 64.40625 C 34.636719 63.875 34.320313 63.328125 33.785156 63.183594 C 33.699219 63.160156 33.609375 63.148438 33.519531 63.152344 Z M 40 64 C 39.449219 64 39 64.449219 39 65 C 39 65.550781 39.449219 66 40 66 C 40.550781 66 41 65.550781 41 65 C 41 64.449219 40.550781 64 40 64 Z"/></svg>