<?xml version="1.0"?><svg fill="#212529" xmlns="http://www.w3.org/2000/svg"  viewBox="0 0 80 80" width="500px" height="500px">    <path d="M 22.984375 5.9863281 A 1.0001 1.0001 0 0 0 22 7 L 22 9.9746094 A 1.0001 1.0001 0 0 0 22.003906 10.050781 C 21.177739 10.098961 20.36285 10.185254 19.572266 10.347656 A 1.0001 1.0001 0 0 0 19.558594 10.294922 L 19.076172 8.4960938 A 1.0001 1.0001 0 0 0 18.130859 7.7421875 A 1.0001 1.0001 0 0 0 17.144531 9.0136719 L 17.626953 10.8125 A 1.0001 1.0001 0 0 0 17.646484 10.876953 C 16.865655 11.13677 16.112853 11.454781 15.386719 11.820312 A 1.0001607 1.0001607 0 0 0 15.353516 11.755859 L 13.865234 9.1796875 A 1.0001 1.0001 0 0 0 12.955078 8.6679688 A 1.0001 1.0001 0 0 0 12.134766 10.179688 L 13.621094 12.755859 A 1.0001607 1.0001607 0 0 0 13.65625 12.810547 C 12.972934 13.261883 12.332382 13.768071 11.722656 14.310547 A 1.0001 1.0001 0 0 0 11.667969 14.253906 L 10.351562 12.9375 A 1.0001 1.0001 0 0 0 9.6328125 12.634766 A 1.0001 1.0001 0 0 0 8.9375 14.351562 L 10.253906 15.667969 A 1.0001 1.0001 0 0 0 10.3125 15.722656 C 9.7696865 16.332667 9.2621259 16.972567 8.8105469 17.65625 A 1.0001607 1.0001607 0 0 0 8.7558594 17.621094 L 6.1796875 16.134766 A 1.0001 1.0001 0 0 0 5.7050781 15.992188 A 1.0001 1.0001 0 0 0 5.6035156 15.994141 A 1.0001 1.0001 0 0 0 5.1796875 17.865234 L 7.7558594 19.353516 A 1.0001607 1.0001607 0 0 0 7.8203125 19.386719 C 7.4547815 20.112853 7.13677 20.865655 6.8769531 21.646484 A 1.0001 1.0001 0 0 0 6.8125 21.626953 L 5.0136719 21.144531 A 1.0001 1.0001 0 0 0 4.7167969 21.107422 A 1.0001 1.0001 0 0 0 4.4960938 23.076172 L 6.2949219 23.558594 A 1.0001 1.0001 0 0 0 6.3476562 23.570312 C 6.185167 24.360867 6.0990539 25.175809 6.0507812 26.001953 A 1.0001 1.0001 0 0 0 5.9746094 26 L 3 26 A 1.0001 1.0001 0 1 0 3 28 L 5.9746094 28 A 1.0001 1.0001 0 0 0 6.03125 27.998047 C 6.0792575 28.824592 6.1894031 29.63469 6.3515625 30.425781 A 1.0001 1.0001 0 0 0 6.2949219 30.441406 L 4.4960938 30.923828 A 1.0001 1.0001 0 1 0 5.0136719 32.855469 L 6.8125 32.373047 A 1.0001 1.0001 0 0 0 6.8652344 32.357422 C 7.1246767 33.138835 7.4434262 33.890495 7.8085938 34.617188 A 1.0001 1.0001 0 0 0 7.7558594 34.646484 L 5.1796875 36.134766 A 1.0001 1.0001 0 1 0 6.1796875 37.865234 L 8.7558594 36.378906 A 1.0001 1.0001 0 0 0 8.8085938 36.345703 C 9.2594518 37.029061 9.7548798 37.681384 10.296875 38.291016 A 1.0001 1.0001 0 0 0 10.253906 38.332031 L 8.9375 39.648438 A 1.0001 1.0001 0 1 0 10.351562 41.0625 L 11.667969 39.746094 A 1.0001 1.0001 0 0 0 11.708984 39.703125 C 11.89299 39.866824 12.082407 40.024015 12.273438 40.179688 C 9.0986434 42.30848 7 45.888705 7 50 C 7 56.615466 12.384534 62 19 62 L 23 62 A 1.0001 1.0001 0 1 0 23 60 L 19 60 C 13.465466 60 9 55.534534 9 50 C 9 44.758108 13.012774 40.484328 18.132812 40.044922 L 18.824219 39.984375 A 1 1 0 0 0 19 40 A 1 1 0 0 0 20 39 A 1 1 0 0 0 19.228516 38.027344 C 20.127143 34.004894 23.698184 31 28 31 C 28.03121 31 28.128399 31.010925 28.298828 31.015625 L 29.126953 31.039062 L 29.302734 30.228516 C 30.572568 24.383376 35.762062 20 42 20 C 47.680364 20 52.481884 23.638988 54.257812 28.703125 L 54.5625 29.574219 L 55.455078 29.339844 C 56.277622 29.123868 57.125943 29 58 29 C 63.534534 29 68 33.465466 68 39 C 68 39.742234 67.91181 40.465529 67.755859 41.171875 L 67.552734 42.091797 L 68.458984 42.349609 C 72.229774 43.420039 75 46.874185 75 51 C 75 55.982593 70.982593 60 66 60 L 58 60 A 1.0001 1.0001 0 1 0 58 62 L 66 62 C 72.063407 62 77 57.063407 77 51 C 77 46.289298 73.974769 42.358671 69.798828 40.796875 C 69.890764 40.206341 70 39.621006 70 39 C 70 32.384534 64.615466 27 58 27 C 57.215185 27 56.482034 27.153541 55.748047 27.298828 C 53.489192 21.872313 48.234628 18 42 18 C 41.466626 18 40.943721 18.036788 40.425781 18.091797 L 40.820312 17.865234 A 1.0001 1.0001 0 0 0 40.365234 15.994141 A 1.0001 1.0001 0 0 0 39.820312 16.134766 L 37.244141 17.621094 A 1.0001607 1.0001607 0 0 0 37.193359 17.654297 C 36.742067 16.970337 36.243908 16.320993 35.701172 15.710938 A 1.0001 1.0001 0 0 0 35.746094 15.667969 L 37.0625 14.351562 A 1.0001 1.0001 0 0 0 36.335938 12.634766 A 1.0001 1.0001 0 0 0 35.648438 12.9375 L 34.332031 14.253906 A 1.0001 1.0001 0 0 0 34.287109 14.300781 C 33.677259 13.758467 33.029251 13.259659 32.345703 12.808594 A 1.0001607 1.0001607 0 0 0 32.378906 12.755859 L 33.865234 10.179688 A 1.0001 1.0001 0 0 0 33.015625 8.6660156 A 1.0001 1.0001 0 0 0 32.134766 9.1796875 L 30.646484 11.755859 A 1.0001607 1.0001607 0 0 0 30.619141 11.810547 C 29.892606 11.445284 29.136724 11.132578 28.355469 10.873047 A 1.0001 1.0001 0 0 0 28.373047 10.8125 L 28.855469 9.0136719 A 1.0001 1.0001 0 0 0 27.839844 7.7421875 A 1.0001 1.0001 0 0 0 26.923828 8.4960938 L 26.441406 10.294922 A 1.0001 1.0001 0 0 0 26.427734 10.353516 C 25.636213 10.191139 24.825141 10.085193 23.998047 10.037109 A 1.0001 1.0001 0 0 0 24 9.9746094 L 24 7 A 1.0001 1.0001 0 0 0 22.984375 5.9863281 z M 23 12 C 28.487016 12 33.274524 14.940757 35.890625 19.326172 C 31.88394 21.156389 28.839126 24.727898 27.646484 29.066406 C 22.36005 29.243247 18.093343 33.14939 17.255859 38.25 C 16.181663 38.410718 15.151639 38.710974 14.1875 39.130859 C 10.439389 36.404406 8 31.996847 8 27 C 8 18.703379 14.703379 12 23 12 z M 32 30 A 1 1 0 0 0 31 31 A 1 1 0 0 0 32 32 A 1 1 0 0 0 33 31 A 1 1 0 0 0 32 30 z M 56 31 A 1 1 0 0 0 55 32 A 1 1 0 0 0 56 33 A 1 1 0 0 0 57 32 A 1 1 0 0 0 56 31 z M 35 32 A 1 1 0 0 0 34 33 A 1 1 0 0 0 35 34 A 1 1 0 0 0 36 33 A 1 1 0 0 0 35 32 z M 56 35 A 1 1 0 0 0 55 36 A 1 1 0 0 0 56 37 A 1 1 0 0 0 57 36 A 1 1 0 0 0 56 35 z M 43 38.240234 L 42.177734 39.431641 C 42.177734 39.431641 41.158029 40.905816 40.134766 42.669922 C 39.623134 43.551975 39.107945 44.507782 38.708984 45.416016 C 38.310024 46.32425 38 47.145841 38 48 C 38 50.749516 40.250484 53 43 53 C 45.749516 53 48 50.749516 48 48 C 48 47.145954 47.689969 46.324183 47.291016 45.416016 C 46.892062 44.507849 46.376859 43.552026 45.865234 42.669922 C 44.841986 40.905713 43.822266 39.431641 43.822266 39.431641 L 43 38.240234 z M 23 39 A 1 1 0 0 0 22 40 A 1 1 0 0 0 23 41 A 1 1 0 0 0 24 40 A 1 1 0 0 0 23 39 z M 27 41 A 1 1 0 0 0 26 42 A 1 1 0 0 0 27 43 A 1 1 0 0 0 28 42 A 1 1 0 0 0 27 41 z M 43 41.871094 C 43.37716 42.445097 43.568382 42.695359 44.134766 43.671875 C 44.623141 44.513896 45.107938 45.421589 45.458984 46.220703 C 45.810031 47.019817 46 47.749546 46 48 C 46 49.668484 44.668484 51 43 51 C 41.331516 51 40 49.668484 40 48 C 40 47.749159 40.189976 47.017891 40.541016 46.21875 C 40.892055 45.419609 41.376866 44.513822 41.865234 43.671875 C 42.431609 42.695444 42.622846 42.445007 43 41.871094 z M 67 44 A 1 1 0 0 0 66 45 A 1 1 0 0 0 67 46 A 1 1 0 0 0 68 45 A 1 1 0 0 0 67 44 z M 65 47 A 1 1 0 0 0 64 48 A 1 1 0 0 0 65 49 A 1 1 0 0 0 66 48 A 1 1 0 0 0 65 47 z M 32 56.240234 L 31.177734 57.431641 C 31.177734 57.431641 30.158029 58.905816 29.134766 60.669922 C 28.623134 61.551975 28.107945 62.507782 27.708984 63.416016 C 27.310024 64.32425 27 65.145841 27 66 C 27 68.749516 29.250484 71 32 71 C 34.749516 71 37 68.749516 37 66 C 37 65.145954 36.689969 64.324183 36.291016 63.416016 C 35.892062 62.507849 35.376859 61.552026 34.865234 60.669922 C 33.841986 58.905713 32.822266 57.431641 32.822266 57.431641 L 32 56.240234 z M 32 59.871094 C 32.37716 60.445097 32.568382 60.695359 33.134766 61.671875 C 33.623141 62.513896 34.107938 63.421589 34.458984 64.220703 C 34.810031 65.019817 35 65.749546 35 66 C 35 67.668484 33.668484 69 32 69 C 30.331516 69 29 67.668484 29 66 C 29 65.749159 29.189976 65.017891 29.541016 64.21875 C 29.892055 63.419609 30.376866 62.513822 30.865234 61.671875 C 31.431609 60.695444 31.622846 60.445007 32 59.871094 z M 52 60.240234 L 51.177734 61.431641 C 51.177734 61.431641 50.158029 62.905816 49.134766 64.669922 C 48.623134 65.551975 48.107945 66.507782 47.708984 67.416016 C 47.310024 68.32425 47 69.145841 47 70 C 47 72.749516 49.250484 75 52 75 C 54.749516 75 57 72.749516 57 70 C 57 69.145954 56.689969 68.324183 56.291016 67.416016 C 55.892062 66.507849 55.376859 65.552026 54.865234 64.669922 C 53.841986 62.905713 52.822266 61.431641 52.822266 61.431641 L 52 60.240234 z M 52 63.871094 C 52.37716 64.445097 52.568382 64.695359 53.134766 65.671875 C 53.623141 66.513896 54.107938 67.421589 54.458984 68.220703 C 54.810031 69.019817 55 69.749546 55 70 C 55 71.668484 53.668484 73 52 73 C 50.331516 73 49 71.668484 49 70 C 49 69.749159 49.189976 69.017891 49.541016 68.21875 C 49.892055 67.419609 50.376866 66.513822 50.865234 65.671875 C 51.431609 64.695444 51.622846 64.445007 52 63.871094 z"/></svg>