<svg fill="#212529" xmlns="http://www.w3.org/2000/svg"  viewBox="0 0 80 80" width="500px" height="500px"><path d="M 40 6 C 31.930187 6 25.21248 11.656534 23.482422 19.212891 C 18.594954 19.846429 14.693788 23.364425 13.488281 28.052734 C 6.0095081 28.328921 0 34.454863 0 42 C 0 49.72039 6.27961 56 14 56 L 20 56 A 1.0001 1.0001 0 1 0 20 54 L 14 54 C 7.36039 54 2 48.63961 2 42 C 2 35.36039 7.36039 30 14 30 C 13.97025 30 14.0317 30.009766 14.189453 30.009766 L 15.023438 30.009766 L 15.025391 29.994141 C 15.564872 29.979756 16 29.542933 16 29 C 16 28.608772 15.769016 28.277556 15.441406 28.113281 C 16.620249 24.203308 20.115447 21.30624 24.349609 21.033203 L 24.970703 20.994141 C 24.981027 20.994456 24.9896 21 25 21 C 25.020133 21 25.036801 20.989457 25.056641 20.988281 L 25.125 20.984375 L 25.126953 20.974609 C 25.616186 20.909536 26 20.506933 26 20 C 26 19.640109 25.799202 19.33825 25.513672 19.162109 C 27.209666 12.740381 33.034315 8 40 8 C 46.433135 8 51.888211 12.047962 54.025391 17.724609 L 54.044922 17.775391 C 54.027264 17.849747 54 17.920267 54 18 C 54 18.552 54.448 19 55 19 C 55.479867 19 55.862305 18.654256 55.958984 18.203125 C 56.627275 18.083984 57.304494 18 58 18 C 64.63961 18 70 23.36039 70 30 C 70 31.051177 69.851543 32.070721 69.591797 33.056641 L 69.330078 34.046875 L 70.326172 34.283203 C 74.723841 35.332864 78 39.269546 78 44 C 78 49.534534 73.534534 54 68 54 L 56 54 A 1.0001 1.0001 0 1 0 56 56 L 68 56 C 74.615466 56 80 50.615466 80 44 C 80 38.672143 76.459385 34.258886 71.640625 32.699219 C 71.819165 31.820605 72 30.939119 72 30 C 72 22.27961 65.72039 16 58 16 C 57.131846 16 56.313684 16.153389 55.498047 16.306641 C 52.885208 10.277004 46.980544 6 40 6 z M 29 19 C 28.448 19 28 19.448 28 20 C 28 20.552 28.448 21 29 21 C 29.552 21 30 20.552 30 20 C 30 19.448 29.552 19 29 19 z M 33 21 C 32.448 21 32 21.448 32 22 C 32 22.552 32.448 23 33 23 C 33.552 23 34 22.552 34 22 C 34 21.448 33.552 21 33 21 z M 56 21 C 55.448 21 55 21.448 55 22 C 55 22.552 55.448 23 56 23 C 56.552 23 57 22.552 57 22 C 57 21.448 56.552 21 56 21 z M 36 24 C 35.448 24 35 24.448 35 25 C 35 25.552 35.448 26 36 26 C 36.552 26 37 25.552 37 25 C 37 24.448 36.552 24 36 24 z M 56 25 C 55.448 25 55 25.448 55 26 C 55 26.552 55.448 27 56 27 C 56.552 27 57 26.552 57 26 C 57 25.448 56.552 25 56 25 z M 19 28 C 18.448 28 18 28.448 18 29 C 18 29.552 18.448 30 19 30 C 19.552 30 20 29.552 20 29 C 20 28.448 19.552 28 19 28 z M 23 30 C 22.448 30 22 30.448 22 31 C 22 31.552 22.448 32 23 32 C 23.552 32 24 31.552 24 31 C 24 30.448 23.552 30 23 30 z M 26 33 C 25.448 33 25 33.448 25 34 C 25 34.552 25.448 35 26 35 C 26.552 35 27 34.552 27 34 C 27 33.448 26.552 33 26 33 z M 69 36 C 68.448 36 68 36.448 68 37 C 68 37.552 68.448 38 69 38 C 69.552 38 70 37.552 70 37 C 70 36.448 69.552 36 69 36 z M 67 39 C 66.448 39 66 39.448 66 40 C 66 40.552 66.448 41 67 41 C 67.552 41 68 40.552 68 40 C 68 39.448 67.552 39 67 39 z M 31.970703 48.988281 A 1.0001 1.0001 0 0 0 31.072266 49.628906 C 30.405189 51.296098 29.739189 52.962098 29.072266 54.628906 A 1.0001 1.0001 0 1 0 30.927734 55.371094 C 31.594811 53.703902 32.260811 52.037902 32.927734 50.371094 A 1.0001 1.0001 0 0 0 31.970703 48.988281 z M 43.869141 49.869141 A 1.0001 1.0001 0 0 0 43.171875 51.585938 L 44.585938 53 L 43.171875 54.414062 A 1.0001 1.0001 0 1 0 44.585938 55.828125 L 46 54.414062 L 47.414062 55.830078 A 1.0012745 1.0012745 0 0 0 48.830078 54.414062 L 47.416016 53 L 48.830078 51.585938 A 1.0012745 1.0012745 0 0 0 47.414062 50.169922 L 46 51.585938 L 44.585938 50.171875 A 1.0001 1.0001 0 0 0 43.869141 49.869141 z M 37.970703 57.988281 A 1.0001 1.0001 0 0 0 37.072266 58.628906 C 36.405189 60.296098 35.739189 61.962098 35.072266 63.628906 A 1.0001 1.0001 0 1 0 36.927734 64.371094 C 37.594811 62.703902 38.260811 61.037902 38.927734 59.371094 A 1.0001 1.0001 0 0 0 37.970703 57.988281 z M 21.869141 59.869141 A 1.0001 1.0001 0 0 0 21.171875 61.585938 L 22.585938 63 L 21.171875 64.414062 A 1.0001 1.0001 0 1 0 22.585938 65.828125 L 24 64.414062 L 25.414062 65.830078 A 1.0012745 1.0012745 0 0 0 26.830078 64.414062 L 25.416016 63 L 26.830078 61.585938 A 1.0012745 1.0012745 0 0 0 25.414062 60.169922 L 24 61.585938 L 22.585938 60.171875 A 1.0001 1.0001 0 0 0 21.869141 59.869141 z M 48.970703 60.988281 A 1.0001 1.0001 0 0 0 48.072266 61.628906 C 47.405189 63.296098 46.739189 64.962098 46.072266 66.628906 A 1.0001 1.0001 0 1 0 47.927734 67.371094 C 48.594811 65.703902 49.260811 64.037902 49.927734 62.371094 A 1.0001 1.0001 0 0 0 48.970703 60.988281 z"/></svg>