<svg fill="#212529" xmlns="http://www.w3.org/2000/svg"  viewBox="0 0 80 80" width="100px" height="100px"><path d="M 22.984375 10.984375 C 22.433594 10.996094 21.992188 11.449219 22 12 L 22 14.972656 C 22 15 22 15.027344 22.003906 15.050781 C 21.179688 15.097656 20.363281 15.183594 19.574219 15.347656 C 19.566406 15.328125 19.5625 15.3125 19.558594 15.296875 L 19.078125 13.496094 C 18.964844 13.0625 18.578125 12.753906 18.128906 12.742188 C 17.8125 12.734375 17.511719 12.878906 17.316406 13.128906 C 17.121094 13.378906 17.058594 13.707031 17.144531 14.015625 L 17.625 15.8125 C 17.632813 15.835938 17.640625 15.855469 17.644531 15.875 C 16.867188 16.136719 16.113281 16.453125 15.386719 16.820313 C 15.375 16.796875 15.367188 16.777344 15.355469 16.753906 L 13.863281 14.179688 C 13.683594 13.851563 13.332031 13.652344 12.953125 13.667969 C 12.601563 13.679688 12.28125 13.878906 12.113281 14.191406 C 11.945313 14.5 11.953125 14.875 12.136719 15.179688 L 13.621094 17.753906 C 13.632813 17.773438 13.644531 17.792969 13.65625 17.8125 C 12.972656 18.261719 12.332031 18.769531 11.722656 19.3125 C 11.707031 19.289063 11.6875 19.273438 11.667969 19.253906 L 10.351563 17.9375 C 10.164063 17.742188 9.902344 17.632813 9.632813 17.636719 C 9.226563 17.636719 8.859375 17.882813 8.707031 18.257813 C 8.554688 18.636719 8.644531 19.066406 8.9375 19.351563 L 10.253906 20.667969 C 10.273438 20.6875 10.292969 20.707031 10.3125 20.722656 C 9.769531 21.332031 9.261719 21.972656 8.8125 22.65625 C 8.792969 22.644531 8.773438 22.632813 8.757813 22.621094 L 6.179688 21.136719 C 6.035156 21.046875 5.871094 21 5.703125 20.992188 C 5.671875 20.992188 5.636719 20.992188 5.601563 20.996094 C 5.160156 21.023438 4.789063 21.339844 4.691406 21.769531 C 4.59375 22.203125 4.792969 22.648438 5.179688 22.863281 L 7.757813 24.355469 C 7.777344 24.367188 7.796875 24.375 7.820313 24.386719 C 7.453125 25.113281 7.136719 25.867188 6.875 26.644531 C 6.855469 26.640625 6.835938 26.632813 6.8125 26.625 L 5.015625 26.144531 C 4.917969 26.117188 4.816406 26.105469 4.71875 26.109375 C 4.21875 26.121094 3.804688 26.5 3.75 26.996094 C 3.695313 27.492188 4.011719 27.953125 4.496094 28.078125 L 6.296875 28.558594 C 6.3125 28.5625 6.328125 28.566406 6.347656 28.570313 C 6.183594 29.359375 6.097656 30.175781 6.050781 31 C 6.027344 31 6 31 5.976563 31 L 3 31 C 2.640625 30.996094 2.304688 31.183594 2.121094 31.496094 C 1.941406 31.808594 1.941406 32.191406 2.121094 32.503906 C 2.304688 32.816406 2.640625 33.003906 3 33 L 5.976563 33 C 5.992188 33 6.011719 33 6.03125 33 C 6.078125 33.824219 6.1875 34.632813 6.351563 35.425781 C 6.332031 35.429688 6.3125 35.4375 6.296875 35.441406 L 4.496094 35.921875 C 4.144531 36.011719 3.867188 36.28125 3.769531 36.628906 C 3.675781 36.980469 3.773438 37.351563 4.03125 37.605469 C 4.289063 37.859375 4.664063 37.957031 5.015625 37.855469 L 6.8125 37.375 C 6.832031 37.367188 6.847656 37.363281 6.867188 37.359375 C 7.125 38.140625 7.445313 38.890625 7.808594 39.617188 C 7.789063 39.625 7.773438 39.636719 7.757813 39.644531 L 5.179688 41.136719 C 4.855469 41.304688 4.648438 41.640625 4.644531 42.007813 C 4.640625 42.375 4.835938 42.714844 5.15625 42.894531 C 5.476563 43.070313 5.871094 43.0625 6.179688 42.863281 L 8.757813 41.378906 C 8.773438 41.367188 8.792969 41.355469 8.808594 41.34375 C 9.257813 42.027344 9.753906 42.679688 10.296875 43.292969 C 10.28125 43.304688 10.269531 43.316406 10.253906 43.332031 L 8.9375 44.648438 C 8.675781 44.898438 8.570313 45.273438 8.664063 45.621094 C 8.753906 45.972656 9.027344 46.246094 9.378906 46.335938 C 9.726563 46.429688 10.101563 46.324219 10.351563 46.0625 L 11.667969 44.746094 C 11.683594 44.730469 11.695313 44.71875 11.707031 44.703125 C 11.894531 44.867188 12.082031 45.023438 12.273438 45.179688 C 9.097656 47.308594 7 50.890625 7 55 C 7 61.617188 12.382813 67 19 67 L 66 67 C 72.0625 67 77 62.0625 77 56 C 77 51.289063 73.976563 47.359375 69.796875 45.796875 C 69.890625 45.207031 70 44.621094 70 44 C 70 37.382813 64.617188 32 58 32 C 57.214844 32 56.480469 32.152344 55.75 32.296875 C 53.488281 26.871094 48.234375 23 42 23 C 41.464844 23 40.945313 23.035156 40.425781 23.09375 L 40.820313 22.863281 C 41.210938 22.644531 41.40625 22.191406 41.300781 21.757813 C 41.195313 21.320313 40.8125 21.011719 40.363281 20.996094 C 40.175781 20.988281 39.984375 21.035156 39.820313 21.136719 L 37.246094 22.621094 C 37.226563 22.632813 37.210938 22.644531 37.191406 22.65625 C 36.742188 21.96875 36.242188 21.320313 35.703125 20.710938 C 35.714844 20.695313 35.730469 20.683594 35.746094 20.667969 L 37.0625 19.351563 C 37.359375 19.0625 37.445313 18.625 37.285156 18.246094 C 37.125 17.863281 36.75 17.621094 36.335938 17.636719 C 36.074219 17.640625 35.828125 17.75 35.648438 17.9375 L 34.332031 19.253906 C 34.316406 19.269531 34.300781 19.285156 34.285156 19.300781 C 33.675781 18.757813 33.027344 18.257813 32.34375 17.808594 C 32.355469 17.792969 32.367188 17.773438 32.378906 17.753906 L 33.863281 15.179688 C 34.050781 14.871094 34.054688 14.488281 33.878906 14.175781 C 33.703125 13.863281 33.375 13.667969 33.015625 13.667969 C 32.648438 13.664063 32.3125 13.859375 32.136719 14.179688 L 30.644531 16.753906 C 30.636719 16.773438 30.628906 16.792969 30.621094 16.8125 C 29.894531 16.445313 29.136719 16.132813 28.355469 15.875 C 28.363281 15.851563 28.367188 15.832031 28.375 15.8125 L 28.855469 14.015625 C 28.945313 13.703125 28.875 13.367188 28.675781 13.117188 C 28.472656 12.863281 28.164063 12.726563 27.839844 12.742188 C 27.402344 12.765625 27.03125 13.070313 26.921875 13.496094 L 26.441406 15.296875 C 26.4375 15.3125 26.433594 15.332031 26.425781 15.355469 C 25.636719 15.191406 24.824219 15.085938 24 15.035156 C 24 15.015625 24 14.996094 24 14.972656 L 24 12 C 24.003906 11.730469 23.898438 11.46875 23.707031 11.277344 C 23.515625 11.085938 23.253906 10.980469 22.984375 10.984375 Z M 23 17 C 28.488281 17 33.273438 19.941406 35.890625 24.328125 C 31.882813 26.15625 28.839844 29.726563 27.644531 34.066406 C 22.359375 34.242188 18.09375 38.148438 17.253906 43.25 C 16.183594 43.410156 15.152344 43.710938 14.1875 44.128906 C 10.4375 41.40625 8 36.996094 8 32 C 8 23.703125 14.703125 17 23 17 Z M 42 25 C 47.679688 25 52.480469 28.640625 54.257813 33.703125 L 54.5625 34.574219 L 55.453125 34.339844 C 56.277344 34.125 57.125 34 58 34 C 63.535156 34 68 38.464844 68 44 C 68 44.742188 67.910156 45.464844 67.753906 46.171875 L 67.550781 47.09375 L 68.457031 47.347656 C 72.230469 48.421875 75 51.875 75 56 C 75 60.984375 70.984375 65 66 65 L 19 65 C 13.464844 65 9 60.535156 9 55 C 9 49.757813 13.011719 45.484375 18.132813 45.046875 L 18.824219 44.984375 C 18.882813 44.996094 18.941406 45 19 45 C 19.550781 45 20 44.550781 20 44 C 20 43.535156 19.679688 43.132813 19.230469 43.027344 C 20.128906 39.003906 23.699219 36 28 36 C 28.03125 36 28.128906 36.011719 28.296875 36.015625 L 29.125 36.039063 L 29.300781 35.230469 C 30.574219 29.382813 35.761719 25 42 25 Z M 32 35 C 31.449219 35 31 35.449219 31 36 C 31 36.550781 31.449219 37 32 37 C 32.550781 37 33 36.550781 33 36 C 33 35.449219 32.550781 35 32 35 Z M 56 36 C 55.449219 36 55 36.449219 55 37 C 55 37.550781 55.449219 38 56 38 C 56.550781 38 57 37.550781 57 37 C 57 36.449219 56.550781 36 56 36 Z M 35 37 C 34.449219 37 34 37.449219 34 38 C 34 38.550781 34.449219 39 35 39 C 35.550781 39 36 38.550781 36 38 C 36 37.449219 35.550781 37 35 37 Z M 56 40 C 55.449219 40 55 40.449219 55 41 C 55 41.550781 55.449219 42 56 42 C 56.550781 42 57 41.550781 57 41 C 57 40.449219 56.550781 40 56 40 Z M 23 44 C 22.449219 44 22 44.449219 22 45 C 22 45.550781 22.449219 46 23 46 C 23.550781 46 24 45.550781 24 45 C 24 44.449219 23.550781 44 23 44 Z M 27 46 C 26.449219 46 26 46.449219 26 47 C 26 47.550781 26.449219 48 27 48 C 27.550781 48 28 47.550781 28 47 C 28 46.449219 27.550781 46 27 46 Z M 67 49 C 66.449219 49 66 49.449219 66 50 C 66 50.550781 66.449219 51 67 51 C 67.550781 51 68 50.550781 68 50 C 68 49.449219 67.550781 49 67 49 Z M 65 52 C 64.449219 52 64 52.449219 64 53 C 64 53.550781 64.449219 54 65 54 C 65.550781 54 66 53.550781 66 53 C 66 52.449219 65.550781 52 65 52 Z"/></svg>