<svg fill="#212529" xmlns="http://www.w3.org/2000/svg"  viewBox="0 0 80 80" width="50px" height="50px"><path d="M 40 10 C 31.930187 10 25.21248 15.656534 23.482422 23.212891 C 18.594954 23.846429 14.693788 27.364425 13.488281 32.052734 C 6.0095084 32.328921 1.1842379e-15 38.454863 0 46 C 0 53.72039 6.27961 60 14 60 L 19 60 A 1.0001 1.0001 0 1 0 19 58 L 14 58 C 7.36039 58 2 52.63961 2 46 C 2 39.36039 7.36039 34 14 34 C 13.97025 34 14.0317 34.009766 14.189453 34.009766 L 15.023438 34.009766 L 15.025391 33.998047 A 1 1 0 0 0 16 33 A 1 1 0 0 0 15.443359 32.105469 C 16.624127 28.198793 20.117796 25.306089 24.349609 25.033203 L 24.921875 24.998047 A 1 1 0 0 0 25 25 A 1 1 0 0 0 26 24 A 1 1 0 0 0 25.517578 23.144531 C 27.219484 16.73162 33.040588 12 40 12 C 46.433135 12 51.888211 16.047962 54.025391 21.724609 L 54.033203 21.746094 A 1 1 0 0 0 54 22 A 1 1 0 0 0 55 23 A 1 1 0 0 0 55.980469 22.199219 C 56.641881 22.082497 57.311956 22 58 22 C 64.63961 22 70 27.36039 70 34 C 70 35.051177 69.851543 36.070721 69.591797 37.056641 L 69.330078 38.046875 L 70.326172 38.283203 C 74.723841 39.332864 78 43.269546 78 48 C 78 53.534534 73.534534 58 68 58 L 67 58 A 1.0001 1.0001 0 1 0 67 60 L 68 60 C 74.615466 60 80 54.615466 80 48 C 80 42.672143 76.459385 38.258886 71.640625 36.699219 C 71.819165 35.820605 72 34.939119 72 34 C 72 26.27961 65.72039 20 58 20 C 57.131846 20 56.313684 20.153389 55.498047 20.306641 C 52.885208 14.277004 46.980544 10 40 10 z M 29 23 A 1 1 0 0 0 28 24 A 1 1 0 0 0 29 25 A 1 1 0 0 0 30 24 A 1 1 0 0 0 29 23 z M 33 25 A 1 1 0 0 0 32 26 A 1 1 0 0 0 33 27 A 1 1 0 0 0 34 26 A 1 1 0 0 0 33 25 z M 56 25 A 1 1 0 0 0 55 26 A 1 1 0 0 0 56 27 A 1 1 0 0 0 57 26 A 1 1 0 0 0 56 25 z M 36 28 A 1 1 0 0 0 35 29 A 1 1 0 0 0 36 30 A 1 1 0 0 0 37 29 A 1 1 0 0 0 36 28 z M 56 29 A 1 1 0 0 0 55 30 A 1 1 0 0 0 56 31 A 1 1 0 0 0 57 30 A 1 1 0 0 0 56 29 z M 19 32 A 1 1 0 0 0 18 33 A 1 1 0 0 0 19 34 A 1 1 0 0 0 20 33 A 1 1 0 0 0 19 32 z M 23 34 A 1 1 0 0 0 22 35 A 1 1 0 0 0 23 36 A 1 1 0 0 0 24 35 A 1 1 0 0 0 23 34 z M 26 37 A 1 1 0 0 0 25 38 A 1 1 0 0 0 26 39 A 1 1 0 0 0 27 38 A 1 1 0 0 0 26 37 z M 69 40 A 1 1 0 0 0 68 41 A 1 1 0 0 0 69 42 A 1 1 0 0 0 70 41 A 1 1 0 0 0 69 40 z M 67 43 A 1 1 0 0 0 66 44 A 1 1 0 0 0 67 45 A 1 1 0 0 0 68 44 A 1 1 0 0 0 67 43 z M 46.5 44 A 1.0001 1.0001 0 1 0 46.5 46 C 51.206628 46 55 49.793372 55 54.5 A 1.0001 1.0001 0 1 0 57 54.5 C 57 48.712628 52.287372 44 46.5 44 z M 46.5 49 C 44.114932 49 42.068856 50.526679 41.3125 52.666016 A 1.000736 1.000736 0 1 0 43.199219 53.333984 C 43.678863 51.977321 44.967068 51 46.5 51 C 48.444423 51 50 52.555577 50 54.5 C 50 56.444423 48.444423 58 46.5 58 L 26 58 A 1.0001 1.0001 0 1 0 26 60 L 46.5 60 C 49.525577 60 52 57.525577 52 54.5 C 52 51.474423 49.525577 49 46.5 49 z M 60.984375 53.486328 A 1.0001 1.0001 0 0 0 60 54.5 C 60 59.788234 56.966338 64.354249 52.550781 66.572266 A 1.0001187 1.0001187 0 1 0 53.449219 68.359375 C 58.521662 65.811392 62 60.553766 62 54.5 A 1.0001 1.0001 0 0 0 60.984375 53.486328 z M 53.955078 59.320312 A 1.0001 1.0001 0 0 0 53.210938 59.716797 C 51.655116 61.715732 49.235017 63 46.5 63 A 1.0001 1.0001 0 0 0 46.220703 63.039062 L 15 63.039062 A 1.0001 1.0001 0 1 0 15 65.039062 L 46.369141 65.039062 A 1.0001 1.0001 0 0 0 46.660156 64.996094 L 46.744141 64.970703 C 50.005253 64.893773 52.916865 63.350732 54.789062 60.945312 A 1.0001 1.0001 0 0 0 53.955078 59.320312 z M 21 68 A 1.0001 1.0001 0 1 0 21 70 L 46.5 70 A 1.0001 1.0001 0 1 0 46.5 68 L 21 68 z"/></svg>