<svg fill="#212529" xmlns="http://www.w3.org/2000/svg"  viewBox="0 0 80 80" width="500px" height="500px"><path d="M 40 6 C 31.930187 6 25.21248 11.656534 23.482422 19.212891 C 18.594954 19.846429 14.693788 23.364425 13.488281 28.052734 C 6.0095081 28.328921 0 34.454863 0 42 C 0 49.72039 6.27961 56 14 56 L 21 56 A 1.0001 1.0001 0 1 0 21 54 L 14 54 C 7.36039 54 2 48.63961 2 42 C 2 35.36039 7.36039 30 14 30 C 13.97025 30 14.0317 30.009766 14.189453 30.009766 L 15.023438 30.009766 L 15.025391 29.994141 C 15.564872 29.979756 16 29.542933 16 29 C 16 28.608772 15.769016 28.277556 15.441406 28.113281 C 16.620249 24.203308 20.115447 21.30624 24.349609 21.033203 L 24.970703 20.994141 C 24.981027 20.994456 24.9896 21 25 21 C 25.020133 21 25.036801 20.989457 25.056641 20.988281 L 25.125 20.984375 L 25.126953 20.974609 C 25.616186 20.909536 26 20.506933 26 20 C 26 19.640109 25.799202 19.33825 25.513672 19.162109 C 27.209666 12.740381 33.034315 8 40 8 C 46.433135 8 51.888211 12.047962 54.025391 17.724609 L 54.044922 17.775391 C 54.027264 17.849747 54 17.920267 54 18 C 54 18.552 54.448 19 55 19 C 55.479867 19 55.862305 18.654256 55.958984 18.203125 C 56.627275 18.083984 57.304494 18 58 18 C 64.63961 18 70 23.36039 70 30 C 70 31.051177 69.851543 32.070721 69.591797 33.056641 L 69.330078 34.046875 L 70.326172 34.283203 C 74.723841 35.332864 78 39.269546 78 44 C 78 49.534534 73.534534 54 68 54 L 57 54 A 1.0001 1.0001 0 1 0 57 56 L 68 56 C 74.615466 56 80 50.615466 80 44 C 80 38.672143 76.459385 34.258886 71.640625 32.699219 C 71.819165 31.820605 72 30.939119 72 30 C 72 22.27961 65.72039 16 58 16 C 57.131846 16 56.313684 16.153389 55.498047 16.306641 C 52.885208 10.277004 46.980544 6 40 6 z M 29 19 C 28.448 19 28 19.448 28 20 C 28 20.552 28.448 21 29 21 C 29.552 21 30 20.552 30 20 C 30 19.448 29.552 19 29 19 z M 33 21 C 32.448 21 32 21.448 32 22 C 32 22.552 32.448 23 33 23 C 33.552 23 34 22.552 34 22 C 34 21.448 33.552 21 33 21 z M 56 21 C 55.448 21 55 21.448 55 22 C 55 22.552 55.448 23 56 23 C 56.552 23 57 22.552 57 22 C 57 21.448 56.552 21 56 21 z M 36 24 C 35.448 24 35 24.448 35 25 C 35 25.552 35.448 26 36 26 C 36.552 26 37 25.552 37 25 C 37 24.448 36.552 24 36 24 z M 56 25 C 55.448 25 55 25.448 55 26 C 55 26.552 55.448 27 56 27 C 56.552 27 57 26.552 57 26 C 57 25.448 56.552 25 56 25 z M 19 28 C 18.448 28 18 28.448 18 29 C 18 29.552 18.448 30 19 30 C 19.552 30 20 29.552 20 29 C 20 28.448 19.552 28 19 28 z M 23 30 C 22.448 30 22 30.448 22 31 C 22 31.552 22.448 32 23 32 C 23.552 32 24 31.552 24 31 C 24 30.448 23.552 30 23 30 z M 26 33 C 25.448 33 25 33.448 25 34 C 25 34.552 25.448 35 26 35 C 26.552 35 27 34.552 27 34 C 27 33.448 26.552 33 26 33 z M 69 36 C 68.448 36 68 36.448 68 37 C 68 37.552 68.448 38 69 38 C 69.552 38 70 37.552 70 37 C 70 36.448 69.552 36 69 36 z M 41 37.195312 L 40.167969 38.445312 C 38.835011 40.445248 37.501011 42.445248 36.167969 44.445312 L 35.798828 45 L 36.167969 45.554688 C 37.501097 47.554879 38.835097 49.554879 40.167969 51.554688 L 41 52.802734 L 41.832031 51.554688 C 43.164903 49.554879 44.498903 47.554879 45.832031 45.554688 L 46.201172 45 L 45.832031 44.445312 C 44.498989 42.445248 43.164989 40.445248 41.832031 38.445312 L 41 37.195312 z M 67 39 C 66.448 39 66 39.448 66 40 C 66 40.552 66.448 41 67 41 C 67.552 41 68 40.552 68 40 C 68 39.448 67.552 39 67 39 z M 41 40.800781 C 41.932897 42.200362 42.866086 43.600595 43.798828 45 C 42.866225 46.399079 41.932842 47.797998 41 49.197266 C 40.067158 47.797998 39.133775 46.399079 38.201172 45 C 39.133914 43.600595 40.067103 42.200362 41 40.800781 z M 30 55.195312 L 29.167969 56.445312 C 27.835011 58.445248 26.501011 60.445248 25.167969 62.445312 L 24.798828 63 L 25.167969 63.554688 C 26.501097 65.554879 27.835097 67.554879 29.167969 69.554688 L 30 70.802734 L 30.832031 69.554688 C 32.164903 67.554879 33.498903 65.554879 34.832031 63.554688 L 35.201172 63 L 34.832031 62.445312 C 33.498989 60.445248 32.164989 58.445248 30.832031 56.445312 L 30 55.195312 z M 30 58.800781 C 30.932897 60.200362 31.866086 61.600595 32.798828 63 C 31.866225 64.399079 30.932842 65.797998 30 67.197266 C 29.067158 65.797998 28.133775 64.399079 27.201172 63 C 28.133914 61.600595 29.067103 60.200362 30 58.800781 z M 50 59.195312 L 49.167969 60.445312 C 47.835011 62.445248 46.501011 64.445249 45.167969 66.445312 L 44.798828 67 L 45.167969 67.554688 C 46.501097 69.554879 47.835097 71.554879 49.167969 73.554688 L 50 74.802734 L 50.832031 73.554688 C 52.164903 71.554879 53.498903 69.554879 54.832031 67.554688 L 55.201172 67 L 54.832031 66.445312 C 53.498989 64.445249 52.164989 62.445248 50.832031 60.445312 L 50 59.195312 z M 50 62.800781 C 50.932897 64.200362 51.866086 65.600595 52.798828 67 C 51.866225 68.399079 50.932842 69.797998 50 71.197266 C 49.067158 69.797998 48.133775 68.399079 47.201172 67 C 48.133914 65.600595 49.067103 64.200362 50 62.800781 z"/></svg>